# Blender 4.2.0
# www.blender.org
mtllib ketchuppuddle.mtl
o Mustard
v -1.197737 0.451474 -0.090470
v -1.197737 0.483161 -0.090470
v -1.180049 0.451300 -0.130877
v -1.180049 0.482987 -0.130877
v 1.195775 0.454616 -0.105294
v 1.195775 0.486373 -0.105294
v 1.180645 0.454640 -0.147998
v 1.180645 0.486397 -0.147998
v 1.103111 0.466382 -0.112220
v 1.000820 0.455984 -0.049602
v 0.891363 0.426176 0.004197
v 0.776475 0.390391 0.035712
v 0.662517 0.361360 0.044756
v 0.551530 0.343213 0.034354
v 0.441220 0.328791 -0.003095
v 0.330915 0.314415 -0.062983
v 0.220610 0.296471 -0.125774
v 0.110305 0.277252 -0.170664
v -0.000000 0.268614 -0.186488
v -0.110305 0.277001 -0.172016
v -0.220610 0.296702 -0.134158
v -0.330915 0.314673 -0.079387
v -0.441220 0.329647 -0.019868
v -0.551531 0.345329 0.025512
v -0.662642 0.363227 0.050780
v -0.777321 0.391388 0.061022
v -0.893377 0.425354 0.042817
v -1.003158 0.453708 -0.009470
v -1.104020 0.464488 -0.081646
v -1.104020 0.506796 -0.081646
v -1.003158 0.496153 -0.009470
v -0.893376 0.467843 0.042817
v -0.777321 0.433714 0.061022
v -0.662642 0.405248 0.050780
v -0.551531 0.387075 0.025512
v -0.441220 0.371120 -0.019868
v -0.330915 0.355388 -0.079387
v -0.220610 0.336156 -0.134158
v -0.110305 0.316127 -0.172016
v 0.000000 0.307528 -0.186488
v 0.110305 0.315694 -0.170664
v 0.220610 0.335109 -0.125774
v 0.330915 0.354672 -0.062983
v 0.441220 0.369986 -0.003095
v 0.551530 0.384667 0.034354
v 0.662517 0.403072 0.044756
v 0.776475 0.432474 0.035712
v 0.891363 0.468550 0.004197
v 1.000820 0.498461 -0.049602
v 1.103111 0.508808 -0.112220
v -1.125435 0.465090 -0.027730
v -1.018831 0.455261 0.045809
v -0.901561 0.427782 0.099513
v -0.779724 0.393903 0.119053
v -0.662897 0.365225 0.110852
v -0.551526 0.346308 0.086090
v -0.441220 0.332340 0.040872
v -0.330915 0.315650 -0.018200
v -0.220610 0.292777 -0.073102
v -0.110305 0.271724 -0.111050
v 0.000000 0.263272 -0.125519
v 0.110305 0.271653 -0.109482
v 0.220610 0.293286 -0.063968
v 0.330915 0.316991 -0.001487
v 0.441220 0.332492 0.057957
v 0.551526 0.343813 0.095295
v 0.662731 0.361675 0.105126
v 0.778506 0.391102 0.093980
v 0.898325 0.427445 0.061242
v 1.014171 0.456662 0.007033
v 1.121405 0.466476 -0.055665
v 1.121406 0.508902 -0.055665
v 1.014171 0.499139 0.007033
v 0.898325 0.469821 0.061242
v 0.778506 0.433177 0.093980
v 0.662731 0.403392 0.105126
v 0.551526 0.385281 0.095295
v 0.441220 0.373782 0.057957
v 0.330915 0.357497 -0.001487
v 0.220610 0.331858 -0.063968
v 0.110305 0.309747 -0.109482
v -0.000000 0.301694 -0.125519
v -0.110305 0.310559 -0.111050
v -0.220610 0.332130 -0.073102
v -0.330915 0.356484 -0.018200
v -0.441220 0.373859 0.040872
v -0.551526 0.388046 0.086090
v -0.662897 0.407251 0.110852
v -0.779724 0.436235 0.119053
v -0.901561 0.470265 0.099513
v -1.018830 0.497694 0.045809
v -1.125435 0.507396 -0.027730
v -1.194254 0.445885 -0.114730
v -1.205096 0.465295 -0.090085
v -1.194254 0.484513 -0.114730
v -1.183412 0.465103 -0.139374
v -1.150240 0.456152 -0.115518
v 1.150413 0.499308 -0.138283
v 1.184445 0.468663 -0.155672
v 1.193720 0.449293 -0.129619
v 1.193720 0.488002 -0.129619
v 1.202995 0.468632 -0.103566
v 1.169222 0.458741 -0.083942
v -1.172236 0.496925 -0.064013
v 1.150413 0.458749 -0.138283
v 1.052607 0.465237 -0.081014
v 0.947042 0.442465 -0.020520
v 0.834196 0.408212 0.022991
v 0.719123 0.374484 0.042685
v 0.606775 0.351307 0.042432
v 0.496373 0.335833 0.019107
v 0.386068 0.321845 -0.031268
v 0.275763 0.305966 -0.095438
v 0.165458 0.286346 -0.151377
v 0.055152 0.270983 -0.182497
v -0.055153 0.270770 -0.182671
v -0.165458 0.286325 -0.155622
v -0.275763 0.306237 -0.108328
v -0.386068 0.322261 -0.048994
v -0.496374 0.337394 0.005366
v -0.606793 0.353459 0.040183
v -0.719519 0.376000 0.058387
v -0.835639 0.408395 0.056240
v -0.949405 0.440671 0.020356
v -1.054443 0.463207 -0.044365
v -1.150240 0.496607 -0.115518
v -1.054443 0.505584 -0.044365
v -0.949405 0.483160 0.020356
v -0.835639 0.450827 0.056240
v -0.719519 0.418181 0.058387
v -0.606793 0.395332 0.040183
v -0.496373 0.379026 0.005366
v -0.386068 0.363451 -0.048994
v -0.275763 0.346282 -0.108328
v -0.165458 0.325517 -0.155622
v -0.055152 0.309829 -0.182671
v 0.055153 0.309659 -0.182497
v 0.165458 0.324705 -0.151377
v 0.275763 0.345356 -0.095438
v 0.386068 0.362704 -0.031268
v 0.496373 0.377192 0.019107
v 0.606775 0.392871 0.042432
v 0.719123 0.416378 0.042685
v 0.834196 0.450461 0.022991
v 0.947042 0.484913 -0.020520
v 1.052607 0.507703 -0.081014
v -1.172237 0.456471 -0.064013
v -1.073352 0.464242 0.010110
v -0.961348 0.442734 0.076397
v -0.840526 0.410943 0.113516
v -0.720458 0.378400 0.117494
v -0.606814 0.354711 0.100681
v -0.496373 0.339191 0.065980
v -0.386068 0.324748 0.011996
v -0.275763 0.304676 -0.047157
v -0.165458 0.281284 -0.094634
v -0.055152 0.265493 -0.121709
v 0.055153 0.265410 -0.121489
v 0.165458 0.281401 -0.089842
v 0.275763 0.305717 -0.033687
v 0.386068 0.325798 0.029969
v 0.496373 0.337994 0.080080
v 0.606793 0.351438 0.103265
v 0.719913 0.374982 0.102061
v 0.838345 0.409272 0.080488
v 0.957208 0.443542 0.036271
v 1.068738 0.465564 -0.024490
v 1.169222 0.499300 -0.083942
v 1.068739 0.508029 -0.024490
v 0.957208 0.485993 0.036271
v 0.838345 0.451518 0.080488
v 0.719913 0.416874 0.102061
v 0.606793 0.393011 0.103265
v 0.496373 0.379386 0.080080
v 0.386068 0.366863 0.029969
v 0.275763 0.345234 -0.033687
v 0.165458 0.319537 -0.089842
v 0.055152 0.303630 -0.121489
v -0.055153 0.304138 -0.121709
v -0.165458 0.320279 -0.094634
v -0.275763 0.344748 -0.047157
v -0.386068 0.366045 0.011996
v -0.496373 0.380830 0.065980
v -0.606814 0.396581 0.100681
v -0.720458 0.420588 0.117494
v -0.840526 0.453376 0.113516
v -0.961348 0.485213 0.076397
v -1.073352 0.506611 0.010110
v 1.112258 0.516810 -0.083942
v 1.007495 0.506764 -0.021284
v 0.894844 0.477131 0.032719
v 0.777490 0.440716 0.064846
v 0.662624 0.411054 0.074941
v 0.551528 0.392748 0.064824
v 0.441220 0.379617 0.027431
v 0.330915 0.363656 -0.032235
v 0.220610 0.340722 -0.094871
v 0.110305 0.319896 -0.140073
v -0.000000 0.311861 -0.156004
v -0.110305 0.320652 -0.141533
v -0.220610 0.341532 -0.103630
v -0.330915 0.363581 -0.048794
v -0.441220 0.380270 0.010502
v -0.551529 0.395387 0.055801
v -0.662770 0.414129 0.080816
v -0.778522 0.442911 0.090037
v -0.897469 0.477020 0.071165
v -1.010994 0.504881 0.018170
v -1.114727 0.515028 -0.054688
v -1.114727 0.456856 -0.054688
v -1.010994 0.446527 0.018170
v -0.897469 0.418602 0.071165
v -0.778522 0.384709 0.090037
v -0.662770 0.356346 0.080816
v -0.551529 0.337992 0.055801
v -0.441220 0.323213 0.010502
v -0.330915 0.307516 -0.048794
v -0.220610 0.287351 -0.103630
v -0.110305 0.267054 -0.141533
v 0.000000 0.258692 -0.156004
v 0.110305 0.267277 -0.140073
v 0.220610 0.287641 -0.094871
v 0.330915 0.308131 -0.032235
v 0.441220 0.322909 0.027431
v 0.551528 0.335739 0.064824
v 0.662624 0.353696 0.074941
v 0.777490 0.382856 0.064846
v 0.894844 0.418865 0.032719
v 1.007495 0.448359 -0.021284
v 1.112258 0.458474 -0.083942
v 1.124836 0.487707 -0.045060
v 1.016674 0.478027 0.017652
v 0.899630 0.448871 0.071938
v 0.778886 0.412272 0.104906
v 0.662772 0.382593 0.116446
v 0.551525 0.364661 0.106721
v 0.441220 0.353840 0.069404
v 0.330915 0.337751 0.010044
v 0.220610 0.311969 -0.052379
v 0.110305 0.289618 -0.098011
v -0.000000 0.281435 -0.114088
v -0.110305 0.290125 -0.099618
v -0.220610 0.311708 -0.061655
v -0.330915 0.336261 -0.006727
v -0.441220 0.353609 0.052261
v -0.551525 0.367360 0.097449
v -0.662945 0.386613 0.122115
v -0.780174 0.415541 0.129933
v -0.903096 0.449478 0.110143
v -1.021769 0.476768 0.056174
v -1.129450 0.486355 -0.017621
v -1.100004 0.485529 -0.091755
v -1.000220 0.474640 -0.019834
v -0.891842 0.446143 0.032187
v -0.776871 0.412079 0.050141
v -0.662594 0.383863 0.039516
v -0.551532 0.366019 0.014154
v -0.441220 0.349874 -0.031256
v -0.330915 0.334836 -0.090860
v -0.220610 0.317175 -0.145606
v -0.110305 0.297581 -0.183447
v 0.000000 0.289119 -0.197920
v 0.110305 0.297555 -0.182136
v 0.220610 0.316393 -0.137363
v 0.330915 0.334037 -0.074514
v 0.441220 0.348686 -0.014542
v 0.551531 0.363826 0.022928
v 0.662477 0.382156 0.033437
v 0.776094 0.411300 0.024786
v 0.890057 0.447125 -0.006499
v 0.998317 0.477095 -0.060221
v 1.099680 0.487577 -0.122824
v -1.205503 0.460935 -0.123241
v 1.147408 0.478847 -0.148798
v 1.205284 0.464746 -0.135857
v -1.176914 0.476555 -0.054726
v 1.160361 0.450936 -0.111406
v -1.161767 0.504172 -0.090166
v 1.160361 0.506746 -0.111406
v 1.060673 0.515828 -0.052752
v 0.952125 0.493413 0.007875
v 0.836271 0.458911 0.051740
v 0.719518 0.424481 0.072373
v 0.606784 0.400735 0.072849
v 0.496373 0.386047 0.049593
v 0.386068 0.372464 -0.000649
v 0.275763 0.352693 -0.064563
v 0.165458 0.329292 -0.120610
v 0.055153 0.313853 -0.151993
v -0.055153 0.314268 -0.152190
v -0.165458 0.330229 -0.125128
v -0.275763 0.353026 -0.077743
v -0.386068 0.372481 -0.018499
v -0.496373 0.387735 0.035673
v -0.606804 0.403807 0.070432
v -0.719988 0.427294 0.087941
v -0.838083 0.460058 0.084878
v -0.955377 0.492152 0.048376
v -1.063898 0.514042 -0.017128
v -1.161766 0.448505 -0.090166
v -1.063898 0.455780 -0.017128
v -0.955377 0.433737 0.048376
v -0.838083 0.401712 0.084878
v -0.719988 0.369290 0.087941
v -0.606804 0.346234 0.070432
v -0.496373 0.330486 0.035673
v -0.386068 0.315771 -0.018499
v -0.275763 0.297945 -0.077743
v -0.165458 0.276474 -0.125128
v -0.055153 0.260846 -0.152190
v 0.055153 0.260987 -0.151993
v 0.165458 0.276702 -0.120610
v 0.275763 0.298444 -0.064563
v 0.386068 0.316141 -0.000649
v 0.496373 0.329156 0.049593
v 0.606784 0.343578 0.072849
v 0.719518 0.366878 0.072373
v 0.836271 0.400821 0.051740
v 0.952125 0.435044 0.007875
v 1.060673 0.457438 -0.052752
v 1.173313 0.478835 -0.074013
v 1.071763 0.486858 -0.013892
v 0.959114 0.464970 0.046919
v 0.839123 0.430593 0.091268
v 0.720061 0.396021 0.113195
v 0.606796 0.372250 0.114671
v 0.496373 0.359098 0.091512
v 0.386068 0.347091 0.041451
v 0.275763 0.325441 -0.022109
v 0.165458 0.299521 -0.078304
v 0.055153 0.283432 -0.110050
v -0.055153 0.283787 -0.110279
v -0.165458 0.299818 -0.083199
v -0.275763 0.324422 -0.035687
v -0.386068 0.345873 0.023431
v -0.496373 0.360348 0.077346
v -0.606818 0.375881 0.112024
v -0.720634 0.399945 0.128577
v -0.841442 0.432637 0.124256
v -0.963587 0.464359 0.086905
v -1.076898 0.485620 0.020324
v -1.146619 0.476121 -0.125605
v -1.050898 0.484202 -0.054579
v -0.947166 0.461530 0.009848
v -0.834723 0.429133 0.045500
v -0.719343 0.396640 0.047304
v -0.606789 0.374161 0.028839
v -0.496374 0.357873 -0.005999
v -0.386068 0.342380 -0.060430
v -0.275763 0.326550 -0.119798
v -0.165458 0.306885 -0.167057
v -0.055153 0.291327 -0.194101
v 0.055153 0.291408 -0.193936
v 0.165458 0.306473 -0.162915
v 0.275763 0.325695 -0.107016
v 0.386068 0.341514 -0.042749
v 0.496373 0.356104 0.007675
v 0.606772 0.372064 0.031026
v 0.718975 0.395338 0.031552
v 0.833418 0.429138 0.012211
v 0.945136 0.463487 -0.031168
v 1.049583 0.486409 -0.091612
vn -0.5574 -0.7551 0.3451
vn -0.7718 0.6090 0.1829
vn 0.0736 -0.7727 -0.6305
vn -0.2000 0.6571 -0.7268
vn 0.5298 -0.7578 0.3808
vn 0.7490 0.6147 0.2473
vn 0.0429 -0.7686 -0.6383
vn 0.3089 0.6471 -0.6970
vn -0.3716 -0.7588 -0.5348
vn -0.1776 -0.7813 -0.5983
vn -0.0010 -0.7820 -0.6232
vn 0.1265 -0.7781 -0.6153
vn 0.1647 -0.7833 -0.5995
vn 0.2296 -0.7850 -0.5754
vn 0.3375 -0.7796 -0.5276
vn 0.4140 -0.7499 -0.5160
vn 0.4130 -0.7229 -0.5540
vn 0.2722 -0.7438 -0.6104
vn 0.0021 -0.7680 -0.6404
vn -0.2530 -0.7460 -0.6160
vn -0.3804 -0.7222 -0.5776
vn -0.4024 -0.7400 -0.5389
vn -0.3665 -0.7625 -0.5332
vn -0.2903 -0.7714 -0.5663
vn -0.2495 -0.7762 -0.5790
vn -0.2085 -0.7763 -0.5949
vn -0.0323 -0.7875 -0.6154
vn 0.1934 -0.7873 -0.5854
vn 0.4320 -0.7556 -0.4924
vn 0.3155 0.7804 -0.5398
vn 0.4585 0.7389 -0.4938
vn 0.3857 0.7331 -0.5602
vn 0.2251 0.7500 -0.6219
vn 0.0556 0.7721 -0.6331
vn -0.0758 0.7861 -0.6135
vn -0.1887 0.7724 -0.6065
vn -0.1888 0.7868 -0.5877
vn -0.0874 0.8207 -0.5646
vn -0.0241 0.8269 -0.5618
vn 0.0022 0.8256 -0.5643
vn 0.0476 0.8311 -0.5541
vn 0.1276 0.8213 -0.5560
vn 0.2125 0.7804 -0.5881
vn 0.1771 0.7710 -0.6117
vn 0.0161 0.7925 -0.6096
vn -0.1626 0.7757 -0.6098
vn -0.3228 0.7413 -0.5885
vn -0.4293 0.7239 -0.5400
vn -0.4437 0.7422 -0.5022
vn -0.2531 0.7860 -0.5641
vn -0.3539 -0.7585 0.5472
vn -0.4498 -0.7247 0.5220
vn -0.3681 -0.7169 0.5921
vn -0.2176 -0.7390 0.6376
vn -0.0635 -0.7686 0.6365
vn 0.0881 -0.7766 0.6238
vn 0.2002 -0.7653 0.6118
vn 0.1800 -0.7845 0.5934
vn 0.0657 -0.8269 0.5585
vn 0.0074 -0.8426 0.5385
vn -0.0013 -0.8488 0.5287
vn -0.0228 -0.8497 0.5267
vn -0.1008 -0.8272 0.5528
vn -0.2101 -0.7736 0.5978
vn -0.1983 -0.7595 0.6196
vn -0.0364 -0.7804 0.6242
vn 0.1637 -0.7705 0.6161
vn 0.3184 -0.7347 0.5991
vn 0.4150 -0.7137 0.5642
vn 0.4335 -0.7318 0.5258
vn 0.2853 -0.7704 0.5702
vn 0.3655 0.7793 0.5091
vn 0.1702 0.7822 0.5993
vn 0.0128 0.7744 0.6325
vn -0.1055 0.7668 0.6332
vn -0.1533 0.7697 0.6197
vn -0.2218 0.7687 0.6000
vn -0.3344 0.7704 0.5428
vn -0.4303 0.7485 0.5045
vn -0.4371 0.7226 0.5355
vn -0.2811 0.7500 0.5987
vn 0.0020 0.7759 0.6309
vn 0.2606 0.7494 0.6086
vn 0.3998 0.7243 0.5618
vn 0.4184 0.7411 0.5251
vn 0.3665 0.7561 0.5422
vn 0.2915 0.7589 0.5824
vn 0.2481 0.7646 0.5949
vn 0.1846 0.7628 0.6198
vn 0.0062 0.7745 0.6325
vn -0.1994 0.7822 0.5902
vn -0.4236 0.7732 0.4719
vn -0.3907 -0.9019 -0.1843
vn -0.9467 -0.0558 0.3172
vn -0.6417 0.7050 -0.3021
vn -0.1653 -0.0595 -0.9845
vn 0.4241 -0.7542 -0.5014
vn -0.0367 0.7634 -0.6449
vn 0.2998 -0.0594 -0.9521
vn 0.4249 -0.8906 -0.1623
vn 0.6705 0.6990 -0.2487
vn 0.9129 -0.0569 0.4043
vn 0.2871 -0.7720 0.5671
vn -0.5882 0.7199 0.3686
vn -0.3357 -0.7613 -0.5547
vn -0.2775 -0.7729 -0.5707
vn -0.0897 -0.7832 -0.6152
vn 0.0754 -0.7789 -0.6226
vn 0.1533 -0.7800 -0.6067
vn 0.1845 -0.7853 -0.5910
vn 0.2859 -0.7836 -0.5516
vn 0.3815 -0.7679 -0.5146
vn 0.4274 -0.7322 -0.5303
vn 0.3627 -0.7280 -0.5817
vn 0.1471 -0.7606 -0.6324
vn -0.1385 -0.7617 -0.6330
vn -0.3339 -0.7295 -0.5970
vn -0.4001 -0.7279 -0.5569
vn -0.3904 -0.7532 -0.5295
vn -0.3328 -0.7668 -0.5489
vn -0.2570 -0.7759 -0.5761
vn -0.2439 -0.7749 -0.5832
vn -0.1365 -0.7809 -0.6095
vn 0.0842 -0.7900 -0.6073
vn 0.3147 -0.7759 -0.5467
vn 0.1261 0.7645 -0.6322
vn 0.4245 0.7595 -0.4929
vn 0.4364 0.7321 -0.5231
vn 0.3132 0.7390 -0.5964
vn 0.1345 0.7618 -0.6338
vn -0.0116 0.7824 -0.6226
vn -0.1381 0.7798 -0.6106
vn -0.2094 0.7734 -0.5984
vn -0.1412 0.8059 -0.5750
vn -0.0455 0.8267 -0.5608
vn -0.0123 0.8257 -0.5640
vn 0.0220 0.8283 -0.5598
vn 0.0814 0.8305 -0.5510
vn 0.1768 0.8022 -0.5702
vn 0.2168 0.7677 -0.6030
vn 0.1045 0.7831 -0.6130
vn -0.0751 0.7893 -0.6094
vn -0.2458 0.7589 -0.6030
vn -0.3859 0.7280 -0.5666
vn -0.4505 0.7286 -0.5160
vn -0.3845 0.7665 -0.5144
vn -0.3570 -0.7634 0.5383
vn -0.4304 -0.7394 0.5177
vn -0.4216 -0.7175 0.5544
vn -0.2976 -0.7252 0.6209
vn -0.1371 -0.7547 0.6415
vn 0.0108 -0.7762 0.6304
vn 0.1555 -0.7711 0.6174
vn 0.2103 -0.7687 0.6041
vn 0.1235 -0.8073 0.5770
vn 0.0249 -0.8377 0.5456
vn 0.0023 -0.8458 0.5335
vn -0.0081 -0.8504 0.5260
vn -0.0526 -0.8430 0.5353
vn -0.1600 -0.8010 0.5769
vn -0.2263 -0.7586 0.6110
vn -0.1311 -0.7708 0.6234
vn 0.0681 -0.7805 0.6214
vn 0.2466 -0.7533 0.6097
vn 0.3755 -0.7197 0.5839
vn 0.4358 -0.7189 0.5415
vn 0.3857 -0.7515 0.5353
vn 0.5339 0.7306 0.4257
vn 0.2534 0.7862 0.5636
vn 0.0930 0.7791 0.6200
vn -0.0583 0.7692 0.6363
vn -0.1341 0.7679 0.6264
vn -0.1784 0.7693 0.6135
vn -0.2768 0.7706 0.5741
vn -0.3874 0.7637 0.5164
vn -0.4525 0.7301 0.5120
vn -0.3799 0.7308 0.5671
vn -0.1479 0.7687 0.6222
vn 0.1445 0.7673 0.6248
vn 0.3454 0.7325 0.5866
vn 0.4233 0.7284 0.5387
vn 0.3971 0.7515 0.5269
vn 0.3296 0.7574 0.5637
vn 0.2620 0.7629 0.5911
vn 0.2295 0.7627 0.6047
vn 0.1092 0.7675 0.6317
vn -0.1021 0.7799 0.6176
vn -0.2985 0.7845 0.5435
vn 0.0725 0.9969 -0.0308
vn -0.1798 0.9830 0.0384
vn -0.2732 0.9616 0.0277
vn -0.2799 0.9600 0.0091
vn -0.2055 0.9786 0.0026
vn -0.1319 0.9913 -0.0052
vn -0.1031 0.9934 -0.0492
vn -0.1517 0.9875 -0.0429
vn -0.2179 0.9754 0.0323
vn -0.1579 0.9844 0.0775
vn 0.0031 0.9967 0.0806
vn 0.1596 0.9843 0.0757
vn 0.2164 0.9753 0.0450
vn 0.1608 0.9868 -0.0205
vn 0.1213 0.9919 -0.0372
vn 0.1412 0.9899 -0.0146
vn 0.1996 0.9795 -0.0257
vn 0.2669 0.9636 -0.0169
vn 0.2566 0.9664 0.0153
vn 0.1747 0.9840 0.0347
vn -0.0695 0.9967 -0.0418
vn 0.0527 -0.9980 0.0348
vn -0.1875 -0.9820 -0.0214
vn -0.2668 -0.9637 0.0090
vn -0.2653 -0.9635 0.0364
vn -0.1939 -0.9804 0.0343
vn -0.1293 -0.9912 0.0289
vn -0.1092 -0.9930 0.0446
vn -0.1557 -0.9877 0.0127
vn -0.2156 -0.9749 -0.0559
vn -0.1607 -0.9834 -0.0842
vn 0.0012 -0.9957 -0.0930
vn 0.1656 -0.9822 -0.0886
vn 0.2169 -0.9752 -0.0443
vn 0.1399 -0.9895 0.0371
vn 0.0868 -0.9944 0.0609
vn 0.1212 -0.9923 0.0249
vn 0.2023 -0.9793 0.0100
vn 0.2808 -0.9597 0.0051
vn 0.2802 -0.9599 -0.0121
vn 0.1857 -0.9821 -0.0305
vn -0.0585 -0.9981 0.0201
vn 0.5135 0.0218 0.8578
vn 0.4706 0.0202 0.8821
vn 0.3376 0.0215 0.9410
vn 0.1759 0.0086 0.9844
vn 0.0134 -0.0051 0.9999
vn -0.1995 -0.0081 0.9799
vn -0.4086 0.0058 0.9127
vn -0.5004 -0.0028 0.8658
vn -0.4521 -0.0347 0.8913
vn -0.2729 -0.0438 0.9611
vn -0.0016 -0.0379 0.9993
vn 0.2349 -0.0397 0.9712
vn 0.3935 -0.0337 0.9187
vn 0.4740 -0.0086 0.8805
vn 0.4361 -0.0009 0.8999
vn 0.2938 -0.0088 0.9558
vn 0.1419 -0.0055 0.9899
vn -0.0324 0.0064 0.9995
vn -0.2832 0.0206 0.9588
vn -0.5010 0.0211 0.8652
vn -0.6032 0.0227 0.7973
vn 0.5900 0.0272 -0.8070
vn 0.5289 -0.0074 -0.8486
vn 0.3022 -0.0126 -0.9532
vn 0.0126 -0.0103 -0.9999
vn -0.1646 -0.0070 -0.9863
vn -0.3036 0.0039 -0.9528
vn -0.4450 0.0014 -0.8955
vn -0.4695 0.0138 -0.8828
vn -0.3831 0.0339 -0.9231
vn -0.2320 0.0223 -0.9725
vn 0.0019 0.0105 -0.9999
vn 0.2630 0.0256 -0.9645
vn 0.4410 0.0331 -0.8969
vn 0.5013 0.0088 -0.8652
vn 0.4201 -0.0034 -0.9075
vn 0.2099 0.0010 -0.9777
vn 0.0067 -0.0080 -0.9999
vn -0.1645 -0.0133 -0.9863
vn -0.3615 -0.0139 -0.9323
vn -0.5018 -0.0042 -0.8650
vn -0.4967 0.0282 -0.8675
vn -0.8789 -0.1203 -0.4616
vn -0.3377 0.0118 -0.9412
vn 0.9226 -0.1069 -0.3708
vn -0.6922 -0.0058 0.7217
vn -0.0937 -0.9951 0.0309
vn -0.2724 0.9531 -0.1316
vn 0.2834 0.9532 -0.1058
vn -0.0832 0.9964 0.0189
vn -0.2356 0.9712 0.0365
vn -0.2902 0.9568 0.0173
vn -0.2484 0.9686 0.0040
vn -0.1632 0.9866 0.0030
vn -0.1112 0.9934 -0.0268
vn -0.1149 0.9917 -0.0575
vn -0.1951 0.9807 -0.0081
vn -0.2063 0.9765 0.0626
vn -0.0836 0.9931 0.0818
vn 0.0884 0.9930 0.0788
vn 0.2050 0.9765 0.0665
vn 0.1975 0.9802 0.0119
vn 0.1302 0.9908 -0.0381
vn 0.1277 0.9915 -0.0250
vn 0.1635 0.9864 -0.0173
vn 0.2390 0.9707 -0.0259
vn 0.2743 0.9616 -0.0020
vn 0.2225 0.9745 0.0288
vn 0.0841 0.9963 0.0158
vn 0.0997 -0.9938 0.0490
vn -0.0925 -0.9957 -0.0093
vn -0.2356 -0.9718 -0.0095
vn -0.2779 -0.9603 0.0251
vn -0.2346 -0.9713 0.0393
vn -0.1551 -0.9875 0.0287
vn -0.1147 -0.9927 0.0371
vn -0.1221 -0.9918 0.0376
vn -0.1935 -0.9808 -0.0231
vn -0.2065 -0.9755 -0.0754
vn -0.0875 -0.9922 -0.0893
vn 0.0909 -0.9914 -0.0937
vn 0.2110 -0.9747 -0.0731
vn 0.1874 -0.9823 -0.0031
vn 0.1004 -0.9931 0.0604
vn 0.0967 -0.9943 0.0441
vn 0.1573 -0.9875 0.0135
vn 0.2473 -0.9689 0.0089
vn 0.2940 -0.9558 -0.0021
vn 0.2430 -0.9697 -0.0242
vn 0.0843 -0.9963 -0.0172
vn 0.6010 -0.0048 0.7992
vn 0.4998 0.0233 0.8658
vn 0.4139 0.0215 0.9101
vn 0.2554 0.0163 0.9667
vn 0.0964 0.0015 0.9953
vn -0.0839 -0.0091 0.9964
vn -0.3144 -0.0007 0.9493
vn -0.4724 0.0053 0.8814
vn -0.4932 -0.0191 0.8697
vn -0.3784 -0.0429 0.9246
vn -0.1420 -0.0403 0.9890
vn 0.1287 -0.0378 0.9910
vn 0.3215 -0.0393 0.9461
vn 0.4462 -0.0218 0.8947
vn 0.4713 -0.0019 0.8820
vn 0.3741 -0.0047 0.9274
vn 0.2120 -0.0087 0.9772
vn 0.0668 -0.0002 0.9978
vn -0.1521 0.0143 0.9883
vn -0.4061 0.0216 0.9136
vn -0.5622 0.0252 0.8266
vn 0.4726 0.0149 -0.8812
vn 0.5866 0.0099 -0.8098
vn 0.4332 -0.0123 -0.9012
vn 0.1525 -0.0120 -0.9882
vn -0.0956 -0.0085 -0.9954
vn -0.2250 -0.0014 -0.9744
vn -0.3837 0.0031 -0.9234
vn -0.4750 0.0050 -0.8800
vn -0.4365 0.0252 -0.8993
vn -0.3150 0.0317 -0.9486
vn -0.1267 0.0140 -0.9918
vn 0.1383 0.0160 -0.9903
vn 0.3652 0.0337 -0.9303
vn 0.4881 0.0219 -0.8725
vn 0.4795 -0.0004 -0.8775
vn 0.3260 -0.0010 -0.9454
vn 0.0962 -0.0026 -0.9954
vn -0.0740 -0.0107 -0.9972
vn -0.2631 -0.0146 -0.9647
vn -0.4445 -0.0112 -0.8957
vn -0.5261 0.0128 -0.8503
vt 0.905364 0.877501
vt 0.898105 0.852093
vt 0.909209 0.840484
vt 0.915701 0.850583
vt 0.895882 0.839759
vt 0.902372 0.831082
vt 0.907419 0.820861
vt 0.914531 0.821839
vt 0.922667 0.823273
vt 0.127986 0.080575
vt 0.124817 0.099232
vt 0.106800 0.098430
vt 0.105362 0.083183
vt 0.121188 0.118595
vt 0.106707 0.114306
vt 0.096851 0.114235
vt 0.092363 0.105776
vt 0.086419 0.096149
vt 0.083971 0.122401
vt 0.074422 0.119483
vt 0.093075 0.126004
vt 0.090748 0.138642
vt 0.082463 0.142345
vt 0.064742 0.146598
vt 0.860986 0.860663
vt 0.866413 0.840292
vt 0.883024 0.850176
vt 0.880682 0.870975
vt 0.872996 0.823069
vt 0.886519 0.834004
vt 0.067383 0.233940
vt 0.051958 0.214157
vt 0.066247 0.192639
vt 0.081297 0.212365
vt 0.037583 0.193174
vt 0.052234 0.171000
vt 0.079239 0.173555
vt 0.093698 0.192528
vt 0.891889 0.792309
vt 0.902178 0.808747
vt 0.893540 0.820307
vt 0.881885 0.807151
vt 0.902372 0.831082
vt 0.886519 0.834004
vt 0.872996 0.823069
vt 0.106707 0.114306
vt 0.103600 0.131234
vt 0.121188 0.118595
vt 0.116661 0.138868
vt 0.110879 0.158235
vt 0.098287 0.147155
vt 0.121188 0.118595
vt 0.137632 0.126561
vt 0.131874 0.148895
vt 0.116661 0.138868
vt 0.155428 0.137391
vt 0.148777 0.160912
vt 0.142703 0.184372
vt 0.125956 0.170749
vt 0.110879 0.158235
vt 0.174296 0.150333
vt 0.166975 0.174449
vt 0.194030 0.164453
vt 0.186089 0.188971
vt 0.179412 0.213846
vt 0.160679 0.198782
vt 0.214390 0.178915
vt 0.205727 0.203960
vt 0.234912 0.193457
vt 0.225413 0.219048
vt 0.217286 0.245004
vt 0.198430 0.229406
vt 0.255103 0.208076
vt 0.244695 0.234005
vt 0.274571 0.223228
vt 0.263280 0.249015
vt 0.253209 0.274939
vt 0.235600 0.260204
vt 0.293152 0.239297
vt 0.281087 0.264274
vt 0.311518 0.255890
vt 0.298722 0.279619
vt 0.286943 0.303271
vt 0.270140 0.289257
vt 0.330414 0.272593
vt 0.316868 0.294950
vt 0.350061 0.289663
vt 0.335817 0.310761
vt 0.322396 0.331892
vt 0.304238 0.317236
vt 0.370504 0.307376
vt 0.355702 0.327574
vt 0.391618 0.325410
vt 0.376426 0.345418
vt 0.361919 0.365858
vt 0.341650 0.347991
vt 0.413211 0.343283
vt 0.397816 0.364081
vt 0.435006 0.360460
vt 0.419632 0.382886
vt 0.404766 0.406067
vt 0.383033 0.385498
vt 0.456706 0.376592
vt 0.441613 0.401199
vt 0.478023 0.392119
vt 0.463461 0.419047
vt 0.449054 0.446819
vt 0.426871 0.426643
vt 0.498717 0.407714
vt 0.484925 0.436680
vt 0.518736 0.424193
vt 0.505975 0.454606
vt 0.492940 0.485618
vt 0.471073 0.466413
vt 0.538137 0.442170
vt 0.526670 0.473241
vt 0.557245 0.461293
vt 0.547225 0.492373
vt 0.536590 0.523541
vt 0.514742 0.504662
vt 0.576424 0.480970
vt 0.567864 0.511639
vt 0.595939 0.500595
vt 0.588705 0.530691
vt 0.580698 0.560505
vt 0.558581 0.542187
vt 0.615965 0.519718
vt 0.609769 0.549298
vt 0.636409 0.538504
vt 0.630805 0.567688
vt 0.624530 0.596324
vt 0.602826 0.578466
vt 0.657066 0.557179
vt 0.651503 0.586085
vt 0.677551 0.575587
vt 0.671583 0.604259
vt 0.665106 0.632044
vt 0.645361 0.614279
vt 0.697525 0.593466
vt 0.690866 0.621883
vt 0.717027 0.610519
vt 0.709535 0.638699
vt 0.701506 0.665708
vt 0.683710 0.649255
vt 0.736183 0.626725
vt 0.727851 0.654698
vt 0.755100 0.643223
vt 0.746017 0.670785
vt 0.736239 0.696959
vt 0.718904 0.681401
vt 0.773853 0.661112
vt 0.764175 0.687826
vt 0.792391 0.680182
vt 0.782284 0.705636
vt 0.771433 0.729400
vt 0.753759 0.712987
vt 0.810657 0.699858
vt 0.800262 0.723764
vt 0.828670 0.719406
vt 0.818043 0.741763
vt 0.806792 0.762527
vt 0.789157 0.745960
vt 0.846361 0.738248
vt 0.835507 0.759251
vt 0.863212 0.756586
vt 0.852286 0.776113
vt 0.841216 0.794791
vt 0.824194 0.778928
vt 0.878594 0.774688
vt 0.867927 0.792223
vt 0.891889 0.792309
vt 0.872996 0.823069
vt 0.857644 0.809674
vt 0.891762 0.935459
vt 0.870367 0.925101
vt 0.875976 0.896723
vt 0.897538 0.905949
vt 0.849373 0.913247
vt 0.855323 0.885606
vt 0.860986 0.860663
vt 0.880682 0.870975
vt 0.849373 0.913247
vt 0.829065 0.898863
vt 0.835553 0.871660
vt 0.855323 0.885606
vt 0.809255 0.882772
vt 0.816381 0.855840
vt 0.823778 0.831778
vt 0.842181 0.847178
vt 0.860986 0.860663
vt 0.789619 0.866165
vt 0.797505 0.839416
vt 0.769755 0.849857
vt 0.778586 0.823153
vt 0.787499 0.799473
vt 0.805627 0.815641
vt 0.749383 0.834334
vt 0.759382 0.807521
vt 0.728795 0.819157
vt 0.740099 0.792324
vt 0.750957 0.768426
vt 0.769226 0.783741
vt 0.708445 0.803678
vt 0.721063 0.777185
vt 0.688870 0.787339
vt 0.702642 0.761674
vt 0.715347 0.738302
vt 0.732921 0.753366
vt 0.670361 0.769824
vt 0.685009 0.745477
vt 0.652149 0.751685
vt 0.667520 0.728782
vt 0.681321 0.707280
vt 0.698319 0.722982
vt 0.633315 0.733658
vt 0.649401 0.711896
vt 0.613418 0.716351
vt 0.630182 0.695088
vt 0.645050 0.674550
vt 0.663728 0.691124
vt 0.592291 0.700229
vt 0.609609 0.678589
vt 0.570396 0.685305
vt 0.588001 0.662532
vt 0.603635 0.640681
vt 0.624960 0.657655
vt 0.548303 0.671421
vt 0.565812 0.646979
vt 0.526370 0.658162
vt 0.543475 0.631802
vt 0.558807 0.607194
vt 0.581421 0.623855
vt 0.504864 0.645096
vt 0.521370 0.616816
vt 0.483897 0.631947
vt 0.499665 0.601774
vt 0.513981 0.573963
vt 0.536259 0.590629
vt 0.463570 0.618317
vt 0.478478 0.586313
vt 0.444109 0.603139
vt 0.457935 0.569646
vt 0.470634 0.538971
vt 0.492093 0.556911
vt 0.425643 0.585466
vt 0.438072 0.551079
vt 0.407787 0.565481
vt 0.418577 0.530681
vt 0.428686 0.499037
vt 0.449577 0.519688
vt 0.390062 0.543674
vt 0.399097 0.508792
vt 0.372116 0.520618
vt 0.379462 0.486054
vt 0.386724 0.454828
vt 0.407735 0.477205
vt 0.353676 0.497042
vt 0.359601 0.463253
vt 0.334656 0.474193
vt 0.339678 0.441438
vt 0.345159 0.411741
vt 0.365762 0.432691
vt 0.315085 0.453255
vt 0.319924 0.421556
vt 0.295259 0.434630
vt 0.300621 0.403870
vt 0.306302 0.375970
vt 0.325255 0.392793
vt 0.275485 0.418338
vt 0.281977 0.388313
vt 0.255833 0.403657
vt 0.263866 0.374163
vt 0.271380 0.347376
vt 0.288431 0.361079
vt 0.236348 0.389542
vt 0.246076 0.360492
vt 0.217205 0.374419
vt 0.228405 0.346182
vt 0.238104 0.320221
vt 0.254764 0.334004
vt 0.198504 0.357096
vt 0.210642 0.330377
vt 0.179900 0.338456
vt 0.192546 0.313433
vt 0.203195 0.289728
vt 0.220966 0.305457
vt 0.161022 0.319762
vt 0.173940 0.296019
vt 0.141829 0.301722
vt 0.154920 0.278819
vt 0.165894 0.256794
vt 0.184764 0.273292
vt 0.122426 0.284704
vt 0.135698 0.262324
vt 0.103189 0.268277
vt 0.116649 0.246228
vt 0.128155 0.225100
vt 0.146892 0.240792
vt 0.084609 0.251719
vt 0.098260 0.229918
vt 0.093698 0.192528
vt 0.110175 0.209266
vt 0.090268 0.159903
vt 0.079239 0.173555
vt 0.098287 0.147155
vt 0.110879 0.158235
vt 0.103443 0.175319
vt 0.093698 0.192528
vt 0.103443 0.175319
vt 0.119131 0.190254
vt 0.110175 0.209266
vt 0.110879 0.158235
vt 0.136405 0.205200
vt 0.154671 0.220345
vt 0.146892 0.240792
vt 0.173433 0.235893
vt 0.165895 0.256794
vt 0.192236 0.251903
vt 0.184764 0.273292
vt 0.198430 0.229406
vt 0.210694 0.267841
vt 0.203195 0.289728
vt 0.228498 0.283135
vt 0.235600 0.260204
vt 0.253209 0.274939
vt 0.245578 0.297648
vt 0.238104 0.320221
vt 0.262031 0.311429
vt 0.254764 0.334004
vt 0.270140 0.289257
vt 0.286943 0.303271
vt 0.278378 0.324818
vt 0.295203 0.338316
vt 0.288431 0.361079
vt 0.312933 0.352752
vt 0.306302 0.375970
vt 0.331856 0.368926
vt 0.341650 0.347991
vt 0.361919 0.365858
vt 0.351883 0.387173
vt 0.345159 0.411741
vt 0.372807 0.407499
vt 0.365762 0.432691
vt 0.383033 0.385498
vt 0.394333 0.429067
vt 0.386724 0.454828
vt 0.416157 0.450901
vt 0.407735 0.477205
vt 0.426871 0.426643
vt 0.438048 0.472327
vt 0.428686 0.499037
vt 0.459854 0.492858
vt 0.449577 0.519688
vt 0.471073 0.466413
vt 0.481681 0.512464
vt 0.470634 0.538971
vt 0.503678 0.531258
vt 0.492093 0.556912
vt 0.514742 0.504662
vt 0.536591 0.523541
vt 0.525912 0.549458
vt 0.513981 0.573963
vt 0.548398 0.567287
vt 0.536259 0.590629
vt 0.558581 0.542187
vt 0.580699 0.560505
vt 0.571047 0.584871
vt 0.593665 0.602323
vt 0.602826 0.578466
vt 0.624530 0.596324
vt 0.615755 0.619787
vt 0.636807 0.637328
vt 0.624960 0.657655
vt 0.645361 0.614279
vt 0.665106 0.632044
vt 0.656577 0.654651
vt 0.645050 0.674550
vt 0.674994 0.671425
vt 0.663728 0.691124
vt 0.683710 0.649255
vt 0.701506 0.665708
vt 0.692430 0.687534
vt 0.681321 0.707280
vt 0.709368 0.702999
vt 0.698319 0.722983
vt 0.718904 0.681401
vt 0.726287 0.718184
vt 0.715347 0.738302
vt 0.743563 0.733463
vt 0.732921 0.753366
vt 0.753759 0.712987
vt 0.771433 0.729400
vt 0.761159 0.748927
vt 0.750957 0.768426
vt 0.778928 0.764595
vt 0.789157 0.745960
vt 0.806792 0.762526
vt 0.796691 0.780498
vt 0.787500 0.799473
vt 0.814305 0.796568
vt 0.805627 0.815641
vt 0.824194 0.778928
vt 0.841216 0.794791
vt 0.831812 0.812338
vt 0.823778 0.831778
vt 0.849244 0.827190
vt 0.842181 0.847178
vt 0.872996 0.823069
vt 0.866413 0.840292
vt 0.911333 0.800615
vt 0.920588 0.794065
vt 0.902178 0.808747
vt 0.891889 0.792309
vt 0.901588 0.778586
vt 0.910960 0.765488
vt 0.901589 0.778586
vt 0.888104 0.757387
vt 0.896802 0.740253
vt 0.878594 0.774688
vt 0.863212 0.756586
vt 0.872252 0.737109
vt 0.880051 0.717761
vt 0.854990 0.717346
vt 0.862186 0.696658
vt 0.828670 0.719406
vt 0.837019 0.697425
vt 0.843918 0.675872
vt 0.818849 0.676884
vt 0.825651 0.654722
vt 0.810657 0.699858
vt 0.792391 0.680182
vt 0.800483 0.656354
vt 0.807314 0.633798
vt 0.781829 0.636678
vt 0.788752 0.613938
vt 0.773853 0.661112
vt 0.762908 0.618447
vt 0.769941 0.595683
vt 0.743752 0.601835
vt 0.750881 0.579142
vt 0.736183 0.626725
vt 0.724320 0.585605
vt 0.731541 0.563000
vt 0.704544 0.568500
vt 0.711858 0.545950
vt 0.697525 0.593466
vt 0.677551 0.575587
vt 0.684323 0.550587
vt 0.691687 0.528134
vt 0.663653 0.532229
vt 0.670986 0.509995
vt 0.657066 0.557179
vt 0.642954 0.513644
vt 0.650201 0.491726
vt 0.622693 0.494913
vt 0.629860 0.473337
vt 0.615965 0.519718
vt 0.603109 0.475723
vt 0.610321 0.454364
vt 0.584286 0.455874
vt 0.591764 0.434508
vt 0.576424 0.480970
vt 0.557245 0.461293
vt 0.565940 0.436021
vt 0.573820 0.414610
vt 0.547676 0.416999
vt 0.555981 0.395723
vt 0.538137 0.442170
vt 0.518735 0.424193
vt 0.529031 0.399512
vt 0.537713 0.378586
vt 0.509609 0.383944
vt 0.518574 0.363552
vt 0.489355 0.369534
vt 0.498518 0.349748
vt 0.468350 0.355254
vt 0.477654 0.336003
vt 0.435006 0.360460
vt 0.446864 0.340157
vt 0.456320 0.321186
vt 0.425212 0.323569
vt 0.434880 0.304510
vt 0.413211 0.343283
vt 0.403673 0.305832
vt 0.413561 0.286492
vt 0.382506 0.287553
vt 0.392557 0.267955
vt 0.370504 0.307376
vt 0.350061 0.289663
vt 0.361911 0.269375
vt 0.372072 0.249623
vt 0.342035 0.251782
vt 0.352271 0.232009
vt 0.330414 0.272593
vt 0.322879 0.234576
vt 0.333171 0.214881
vt 0.304259 0.217569
vt 0.314602 0.198008
vt 0.274571 0.223228
vt 0.285406 0.201288
vt 0.295803 0.181896
vt 0.265622 0.186205
vt 0.276069 0.167011
vt 0.255103 0.208076
vt 0.234912 0.193457
vt 0.245060 0.171876
vt 0.255487 0.152927
vt 0.224107 0.157723
vt 0.234375 0.139056
vt 0.214390 0.178915
vt 0.194030 0.164453
vt 0.203239 0.143565
vt 0.213152 0.125058
vt 0.182863 0.129524
vt 0.192147 0.110895
vt 0.174296 0.150333
vt 0.155428 0.137391
vt 0.163037 0.116546
vt 0.171219 0.097491
vt 0.143717 0.105889
vt 0.150038 0.086378
vt 0.137632 0.126561
vt 0.124817 0.099232
s 1
usemtl Mustard
f 1/1/1 94/2/94 273/3/273 93/4/93
f 94/2/94 2/5/2 95/6/95 273/3/273
f 273/3/273 95/6/95 4/7/4 96/8/96
f 93/4/93 273/3/273 96/8/96 3/9/3
f 9/10/9 272/11/272 274/12/274 105/13/105
f 272/11/272 50/14/50 98/15/98 274/12/274
f 274/12/274 98/15/98 8/16/8 99/17/99
f 105/13/105 274/12/274 99/17/99 7/18/7
f 7/18/7 99/17/99 275/19/275 100/20/100
f 99/17/99 8/16/8 101/21/101 275/19/275
f 275/19/275 101/21/101 6/22/6 102/23/102
f 100/20/100 275/19/275 102/23/102 5/24/5
f 51/25/51 251/26/251 276/27/276 147/28/147
f 251/26/251 92/29/92 104/30/104 276/27/276
f 276/27/276 104/30/104 2/5/2 94/2/94
f 147/28/147 276/27/276 94/2/94 1/1/1
f 9/31/9 105/32/105 277/33/277 230/34/230
f 105/32/105 7/35/7 100/36/100 277/33/277
f 277/33/277 100/36/100 5/24/5 103/37/103
f 230/34/230 277/33/277 103/37/103 71/38/71
f 30/39/30 126/40/126 278/41/278 209/42/209
f 126/40/126 4/7/4 95/43/95 278/41/278
f 278/41/278 95/43/95 2/5/2 104/44/104
f 209/42/209 278/41/278 104/44/104 92/45/92
f 8/16/8 98/46/98 279/47/279 101/21/101
f 98/46/98 50/48/50 189/49/189 279/47/279
f 279/47/279 189/49/189 72/50/72 168/51/168
f 101/21/101 279/47/279 168/51/168 6/22/6
f 50/52/50 146/53/146 280/54/280 189/55/189
f 146/53/146 49/56/49 190/57/190 280/54/280
f 280/54/280 190/57/190 73/58/73 169/59/169
f 189/55/189 280/54/280 169/59/169 72/60/72
f 49/56/49 145/61/145 281/62/281 190/57/190
f 145/61/145 48/63/48 191/64/191 281/62/281
f 281/62/281 191/64/191 74/65/74 170/66/170
f 190/57/190 281/62/281 170/66/170 73/58/73
f 48/63/48 144/67/144 282/68/282 191/64/191
f 144/67/144 47/69/47 192/70/192 282/68/282
f 282/68/282 192/70/192 75/71/75 171/72/171
f 191/64/191 282/68/282 171/72/171 74/65/74
f 47/69/47 143/73/143 283/74/283 192/70/192
f 143/73/143 46/75/46 193/76/193 283/74/283
f 283/74/283 193/76/193 76/77/76 172/78/172
f 192/70/192 283/74/283 172/78/172 75/71/75
f 46/75/46 142/79/142 284/80/284 193/76/193
f 142/79/142 45/81/45 194/82/194 284/80/284
f 284/80/284 194/82/194 77/83/77 173/84/173
f 193/76/193 284/80/284 173/84/173 76/77/76
f 45/81/45 141/85/141 285/86/285 194/82/194
f 141/85/141 44/87/44 195/88/195 285/86/285
f 285/86/285 195/88/195 78/89/78 174/90/174
f 194/82/194 285/86/285 174/90/174 77/83/77
f 44/87/44 140/91/140 286/92/286 195/88/195
f 140/91/140 43/93/43 196/94/196 286/92/286
f 286/92/286 196/94/196 79/95/79 175/96/175
f 195/88/195 286/92/286 175/96/175 78/89/78
f 43/93/43 139/97/139 287/98/287 196/94/196
f 139/97/139 42/99/42 197/100/197 287/98/287
f 287/98/287 197/100/197 80/101/80 176/102/176
f 196/94/196 287/98/287 176/102/176 79/95/79
f 42/99/42 138/103/138 288/104/288 197/100/197
f 138/103/138 41/105/41 198/106/198 288/104/288
f 288/104/288 198/106/198 81/107/81 177/108/177
f 197/100/197 288/104/288 177/108/177 80/101/80
f 41/105/41 137/109/137 289/110/289 198/106/198
f 137/109/137 40/111/40 199/112/199 289/110/289
f 289/110/289 199/112/199 82/113/82 178/114/178
f 198/106/198 289/110/289 178/114/178 81/107/81
f 40/111/40 136/115/136 290/116/290 199/112/199
f 136/115/136 39/117/39 200/118/200 290/116/290
f 290/116/290 200/118/200 83/119/83 179/120/179
f 199/112/199 290/116/290 179/120/179 82/113/82
f 39/117/39 135/121/135 291/122/291 200/118/200
f 135/121/135 38/123/38 201/124/201 291/122/291
f 291/122/291 201/124/201 84/125/84 180/126/180
f 200/118/200 291/122/291 180/126/180 83/119/83
f 38/123/38 134/127/134 292/128/292 201/124/201
f 134/127/134 37/129/37 202/130/202 292/128/292
f 292/128/292 202/130/202 85/131/85 181/132/181
f 201/124/201 292/128/292 181/132/181 84/125/84
f 37/129/37 133/133/133 293/134/293 202/130/202
f 133/133/133 36/135/36 203/136/203 293/134/293
f 293/134/293 203/136/203 86/137/86 182/138/182
f 202/130/202 293/134/293 182/138/182 85/131/85
f 36/135/36 132/139/132 294/140/294 203/136/203
f 132/139/132 35/141/35 204/142/204 294/140/294
f 294/140/294 204/142/204 87/143/87 183/144/183
f 203/136/203 294/140/294 183/144/183 86/137/86
f 35/141/35 131/145/131 295/146/295 204/142/204
f 131/145/131 34/147/34 205/148/205 295/146/295
f 295/146/295 205/148/205 88/149/88 184/150/184
f 204/142/204 295/146/295 184/150/184 87/143/87
f 34/147/34 130/151/130 296/152/296 205/148/205
f 130/151/130 33/153/33 206/154/206 296/152/296
f 296/152/296 206/154/206 89/155/89 185/156/185
f 205/148/205 296/152/296 185/156/185 88/149/88
f 33/153/33 129/157/129 297/158/297 206/154/206
f 129/157/129 32/159/32 207/160/207 297/158/297
f 297/158/297 207/160/207 90/161/90 186/162/186
f 206/154/206 297/158/297 186/162/186 89/155/89
f 32/159/32 128/163/128 298/164/298 207/160/207
f 128/163/128 31/165/31 208/166/208 298/164/298
f 298/164/298 208/166/208 91/167/91 187/168/187
f 207/160/207 298/164/298 187/168/187 90/161/90
f 31/165/31 127/169/127 299/170/299 208/166/208
f 127/169/127 30/171/30 209/42/209 299/170/299
f 299/170/299 209/42/209 92/172/92 188/173/188
f 208/166/208 299/170/299 188/173/188 91/167/91
f 3/174/3 97/175/97 300/176/300 93/177/93
f 97/175/97 29/178/29 210/179/210 300/176/300
f 300/176/300 210/179/210 51/180/51 147/181/147
f 93/177/93 300/176/300 147/181/147 1/1/1
f 29/182/29 125/183/125 301/184/301 210/185/210
f 125/183/125 28/186/28 211/187/211 301/184/301
f 301/184/301 211/187/211 52/188/52 148/189/148
f 210/185/210 301/184/301 148/189/148 51/190/51
f 28/186/28 124/191/124 302/192/302 211/187/211
f 124/191/124 27/193/27 212/194/212 302/192/302
f 302/192/302 212/194/212 53/195/53 149/196/149
f 211/187/211 302/192/302 149/196/149 52/188/52
f 27/193/27 123/197/123 303/198/303 212/194/212
f 123/197/123 26/199/26 213/200/213 303/198/303
f 303/198/303 213/200/213 54/201/54 150/202/150
f 212/194/212 303/198/303 150/202/150 53/195/53
f 26/199/26 122/203/122 304/204/304 213/200/213
f 122/203/122 25/205/25 214/206/214 304/204/304
f 304/204/304 214/206/214 55/207/55 151/208/151
f 213/200/213 304/204/304 151/208/151 54/201/54
f 25/205/25 121/209/121 305/210/305 214/206/214
f 121/209/121 24/211/24 215/212/215 305/210/305
f 305/210/305 215/212/215 56/213/56 152/214/152
f 214/206/214 305/210/305 152/214/152 55/207/55
f 24/211/24 120/215/120 306/216/306 215/212/215
f 120/215/120 23/217/23 216/218/216 306/216/306
f 306/216/306 216/218/216 57/219/57 153/220/153
f 215/212/215 306/216/306 153/220/153 56/213/56
f 23/217/23 119/221/119 307/222/307 216/218/216
f 119/221/119 22/223/22 217/224/217 307/222/307
f 307/222/307 217/224/217 58/225/58 154/226/154
f 216/218/216 307/222/307 154/226/154 57/219/57
f 22/223/22 118/227/118 308/228/308 217/224/217
f 118/227/118 21/229/21 218/230/218 308/228/308
f 308/228/308 218/230/218 59/231/59 155/232/155
f 217/224/217 308/228/308 155/232/155 58/225/58
f 21/229/21 117/233/117 309/234/309 218/230/218
f 117/233/117 20/235/20 219/236/219 309/234/309
f 309/234/309 219/236/219 60/237/60 156/238/156
f 218/230/218 309/234/309 156/238/156 59/231/59
f 20/235/20 116/239/116 310/240/310 219/236/219
f 116/239/116 19/241/19 220/242/220 310/240/310
f 310/240/310 220/242/220 61/243/61 157/244/157
f 219/236/219 310/240/310 157/244/157 60/237/60
f 19/241/19 115/245/115 311/246/311 220/242/220
f 115/245/115 18/247/18 221/248/221 311/246/311
f 311/246/311 221/248/221 62/249/62 158/250/158
f 220/242/220 311/246/311 158/250/158 61/243/61
f 18/247/18 114/251/114 312/252/312 221/248/221
f 114/251/114 17/253/17 222/254/222 312/252/312
f 312/252/312 222/254/222 63/255/63 159/256/159
f 221/248/221 312/252/312 159/256/159 62/249/62
f 17/253/17 113/257/113 313/258/313 222/254/222
f 113/257/113 16/259/16 223/260/223 313/258/313
f 313/258/313 223/260/223 64/261/64 160/262/160
f 222/254/222 313/258/313 160/262/160 63/255/63
f 16/259/16 112/263/112 314/264/314 223/260/223
f 112/263/112 15/265/15 224/266/224 314/264/314
f 314/264/314 224/266/224 65/267/65 161/268/161
f 223/260/223 314/264/314 161/268/161 64/261/64
f 15/265/15 111/269/111 315/270/315 224/266/224
f 111/269/111 14/271/14 225/272/225 315/270/315
f 315/270/315 225/272/225 66/273/66 162/274/162
f 224/266/224 315/270/315 162/274/162 65/267/65
f 14/271/14 110/275/110 316/276/316 225/272/225
f 110/275/110 13/277/13 226/278/226 316/276/316
f 316/276/316 226/278/226 67/279/67 163/280/163
f 225/272/225 316/276/316 163/280/163 66/273/66
f 13/277/13 109/281/109 317/282/317 226/278/226
f 109/281/109 12/283/12 227/284/227 317/282/317
f 317/282/317 227/284/227 68/285/68 164/286/164
f 226/278/226 317/282/317 164/286/164 67/279/67
f 12/283/12 108/287/108 318/288/318 227/284/227
f 108/287/108 11/289/11 228/290/228 318/288/318
f 318/288/318 228/290/228 69/291/69 165/292/165
f 227/284/227 318/288/318 165/292/165 68/285/68
f 11/289/11 107/293/107 319/294/319 228/290/228
f 107/293/107 10/295/10 229/296/229 319/294/319
f 319/294/319 229/296/229 70/297/70 166/298/166
f 228/290/228 319/294/319 166/298/166 69/291/69
f 10/295/10 106/299/106 320/300/320 229/296/229
f 106/299/106 9/31/9 230/34/230 320/300/320
f 320/300/320 230/34/230 71/301/71 167/302/167
f 229/296/229 320/300/320 167/302/167 70/297/70
f 5/24/5 102/23/102 321/303/321 103/304/103
f 102/23/102 6/22/6 168/305/168 321/303/321
f 321/303/321 168/305/168 72/306/72 231/307/231
f 103/304/103 321/303/321 231/307/231 71/308/71
f 71/38/71 231/309/231 322/310/322 167/311/167
f 231/309/231 72/312/72 169/59/169 322/310/322
f 322/310/322 169/59/169 73/58/73 232/313/232
f 167/311/167 322/310/322 232/313/232 70/297/70
f 70/297/70 232/313/232 323/314/323 166/315/166
f 232/313/232 73/58/73 170/66/170 323/314/323
f 323/314/323 170/66/170 74/65/74 233/316/233
f 166/315/166 323/314/323 233/316/233 69/317/69
f 69/317/69 233/316/233 324/318/324 165/319/165
f 233/316/233 74/65/74 171/320/171 324/318/324
f 324/318/324 171/320/171 75/71/75 234/321/234
f 165/319/165 324/318/324 234/321/234 68/322/68
f 68/322/68 234/321/234 325/323/325 164/286/164
f 234/321/234 75/71/75 172/324/172 325/323/325
f 325/323/325 172/324/172 76/325/76 235/326/235
f 164/286/164 325/323/325 235/326/235 67/327/67
f 67/327/67 235/326/235 326/328/326 163/329/163
f 235/326/235 76/325/76 173/330/173 326/328/326
f 326/328/326 173/330/173 77/331/77 236/332/236
f 163/329/163 326/328/326 236/332/236 66/273/66
f 66/273/66 236/332/236 327/333/327 162/334/162
f 236/332/236 77/331/77 174/90/174 327/333/327
f 327/333/327 174/90/174 78/89/78 237/335/237
f 162/334/162 327/333/327 237/335/237 65/336/65
f 65/336/65 237/335/237 328/337/328 161/268/161
f 237/335/237 78/89/78 175/338/175 328/337/328
f 328/337/328 175/338/175 79/339/79 238/340/238
f 161/268/161 328/337/328 238/340/238 64/341/64
f 64/341/64 238/340/238 329/342/329 160/343/160
f 238/340/238 79/339/79 176/344/176 329/342/329
f 329/342/329 176/344/176 80/101/80 239/345/239
f 160/343/160 329/342/329 239/345/239 63/346/63
f 63/346/63 239/345/239 330/347/330 159/348/159
f 239/345/239 80/101/80 177/349/177 330/347/330
f 330/347/330 177/349/177 81/107/81 240/350/240
f 159/348/159 330/347/330 240/350/240 62/351/62
f 62/351/62 240/350/240 331/352/331 158/353/158
f 240/350/240 81/107/81 178/354/178 331/352/331
f 331/352/331 178/354/178 82/113/82 241/355/241
f 158/353/158 331/352/331 241/355/241 61/356/61
f 61/356/61 241/355/241 332/357/332 157/358/157
f 241/355/241 82/113/82 179/359/179 332/357/332
f 332/357/332 179/359/179 83/360/83 242/361/242
f 157/358/157 332/357/332 242/361/242 60/362/60
f 60/362/60 242/361/242 333/363/333 156/364/156
f 242/361/242 83/360/83 180/365/180 333/363/333
f 333/363/333 180/365/180 84/366/84 243/367/243
f 156/364/156 333/363/333 243/367/243 59/231/59
f 59/231/59 243/367/243 334/368/334 155/232/155
f 243/367/243 84/366/84 181/369/181 334/368/334
f 334/368/334 181/369/181 85/370/85 244/371/244
f 155/232/155 334/368/334 244/371/244 58/225/58
f 58/225/58 244/371/244 335/372/335 154/373/154
f 244/371/244 85/370/85 182/374/182 335/372/335
f 335/372/335 182/374/182 86/375/86 245/376/245
f 154/373/154 335/372/335 245/376/245 57/377/57
f 57/377/57 245/376/245 336/378/336 153/379/153
f 245/376/245 86/375/86 183/380/183 336/378/336
f 336/378/336 183/380/183 87/381/87 246/382/246
f 153/379/153 336/378/336 246/382/246 56/383/56
f 56/383/56 246/382/246 337/384/337 152/385/152
f 246/382/246 87/381/87 184/386/184 337/384/337
f 337/384/337 184/386/184 88/149/88 247/387/247
f 152/385/152 337/384/337 247/387/247 55/388/55
f 55/388/55 247/387/247 338/389/338 151/390/151
f 247/387/247 88/149/88 185/391/185 338/389/338
f 338/389/338 185/391/185 89/392/89 248/393/248
f 151/390/151 338/389/338 248/393/248 54/394/54
f 54/394/54 248/393/248 339/395/339 150/202/150
f 248/393/248 89/392/89 186/396/186 339/395/339
f 339/395/339 186/396/186 90/397/90 249/398/249
f 150/202/150 339/395/339 249/398/249 53/399/53
f 53/399/53 249/398/249 340/400/340 149/401/149
f 249/398/249 90/397/90 187/402/187 340/400/340
f 340/400/340 187/402/187 91/403/91 250/404/250
f 149/401/149 340/400/340 250/404/250 52/405/52
f 52/405/52 250/404/250 341/406/341 148/407/148
f 250/404/250 91/403/91 188/173/188 341/406/341
f 341/406/341 188/173/188 92/408/92 251/409/251
f 148/407/148 341/406/341 251/409/251 51/180/51
f 3/9/3 96/8/96 342/410/342 97/411/97
f 96/8/96 4/7/4 126/412/126 342/410/342
f 342/410/342 126/412/126 30/413/30 252/414/252
f 97/411/97 342/410/342 252/414/252 29/415/29
f 29/415/29 252/416/252 343/417/343 125/418/125
f 252/416/252 30/171/30 127/419/127 343/417/343
f 343/417/343 127/419/127 31/420/31 253/421/253
f 125/418/125 343/417/343 253/421/253 28/422/28
f 28/422/28 253/421/253 344/423/344 124/424/124
f 253/421/253 31/420/31 128/163/128 344/423/344
f 344/423/344 128/163/128 32/425/32 254/426/254
f 124/424/124 344/423/344 254/426/254 27/427/27
f 27/427/27 254/426/254 345/428/345 123/429/123
f 254/426/254 32/425/32 129/430/129 345/428/345
f 345/428/345 129/430/129 33/431/33 255/432/255
f 123/429/123 345/428/345 255/432/255 26/433/26
f 26/433/26 255/432/255 346/434/346 122/435/122
f 255/432/255 33/431/33 130/436/130 346/434/346
f 346/434/346 130/436/130 34/147/34 256/437/256
f 122/435/122 346/434/346 256/437/256 25/438/25
f 25/438/25 256/437/256 347/439/347 121/440/121
f 256/437/256 34/147/34 131/441/131 347/439/347
f 347/439/347 131/441/131 35/141/35 257/442/257
f 121/440/121 347/439/347 257/442/257 24/443/24
f 24/443/24 257/442/257 348/444/348 120/445/120
f 257/442/257 35/141/35 132/446/132 348/444/348
f 348/444/348 132/446/132 36/447/36 258/448/258
f 120/445/120 348/444/348 258/448/258 23/449/23
f 23/449/23 258/448/258 349/450/349 119/451/119
f 258/448/258 36/447/36 133/452/133 349/450/349
f 349/450/349 133/452/133 37/129/37 259/453/259
f 119/451/119 349/450/349 259/453/259 22/454/22
f 22/454/22 259/453/259 350/455/350 118/456/118
f 259/453/259 37/129/37 134/457/134 350/455/350
f 350/455/350 134/457/134 38/123/38 260/458/260
f 118/456/118 350/455/350 260/458/260 21/459/21
f 21/459/21 260/458/260 351/460/351 117/461/117
f 260/458/260 38/123/38 135/462/135 351/460/351
f 351/460/351 135/462/135 39/463/39 261/464/261
f 117/461/117 351/460/351 261/464/261 20/465/20
f 20/465/20 261/464/261 352/466/352 116/467/116
f 261/464/261 39/463/39 136/468/136 352/466/352
f 352/466/352 136/468/136 40/469/40 262/470/262
f 116/467/116 352/466/352 262/470/262 19/471/19
f 19/471/19 262/470/262 353/472/353 115/473/115
f 262/470/262 40/469/40 137/109/137 353/472/353
f 353/472/353 137/109/137 41/105/41 263/474/263
f 115/473/115 353/472/353 263/474/263 18/475/18
f 18/475/18 263/474/263 354/476/354 114/477/114
f 263/474/263 41/105/41 138/103/138 354/476/354
f 354/476/354 138/103/138 42/478/42 264/479/264
f 114/477/114 354/476/354 264/479/264 17/480/17
f 17/480/17 264/479/264 355/481/355 113/482/113
f 264/479/264 42/478/42 139/483/139 355/481/355
f 355/481/355 139/483/139 43/93/43 265/484/265
f 113/482/113 355/481/355 265/484/265 16/485/16
f 16/485/16 265/484/265 356/486/356 112/487/112
f 265/484/265 43/93/43 140/488/140 356/486/356
f 356/486/356 140/488/140 44/489/44 266/490/266
f 112/487/112 356/486/356 266/490/266 15/491/15
f 15/491/15 266/490/266 357/492/357 111/493/111
f 266/490/266 44/489/44 141/494/141 357/492/357
f 357/492/357 141/494/141 45/81/45 267/495/267
f 111/493/111 357/492/357 267/495/267 14/496/14
f 14/496/14 267/495/267 358/497/358 110/498/110
f 267/495/267 45/81/45 142/79/142 358/497/358
f 358/497/358 142/79/142 46/499/46 268/500/268
f 110/498/110 358/497/358 268/500/268 13/501/13
f 13/501/13 268/500/268 359/502/359 109/503/109
f 268/500/268 46/499/46 143/504/143 359/502/359
f 359/502/359 143/504/143 47/505/47 269/506/269
f 109/503/109 359/502/359 269/506/269 12/507/12
f 12/507/12 269/506/269 360/508/360 108/509/108
f 269/506/269 47/505/47 144/510/144 360/508/360
f 360/508/360 144/510/144 48/511/48 270/512/270
f 108/509/108 360/508/360 270/512/270 11/513/11
f 11/513/11 270/512/270 361/514/361 107/515/107
f 270/512/270 48/511/48 145/516/145 361/514/361
f 361/514/361 145/516/145 49/517/49 271/518/271
f 107/515/107 361/514/361 271/518/271 10/519/10
f 10/519/10 271/518/271 362/520/362 106/521/106
f 271/518/271 49/517/49 146/522/146 362/520/362
f 362/520/362 146/522/146 50/48/50 272/523/272
f 106/521/106 362/520/362 272/523/272 9/10/9
