# Blender 4.2.0
# www.blender.org
mtllib tomato.mtl
o tomate
v -0.997903 1.307769 -0.192062
v -0.990118 1.319517 -0.190486
v -0.933904 1.322840 -0.377906
v -0.941229 1.311149 -0.381005
v -0.842506 1.332048 -0.550766
v -0.849087 1.320504 -0.555264
v -0.719314 1.341458 -0.702655
v -0.724897 1.330054 -0.708383
v -0.568697 1.346598 -0.827801
v -0.573061 1.335287 -0.834547
v -0.396027 1.344639 -0.921093
v -0.398986 1.333330 -0.928598
v 0.002953 1.302057 1.008831
v 0.003018 1.313612 1.000718
v -0.201906 1.308520 0.981691
v -0.203305 1.296819 0.989646
v -0.208058 1.335917 -0.978700
v -0.209484 1.324527 -0.986672
v -0.389521 1.311196 0.925063
v -0.392445 1.299500 0.932557
v 0.003077 1.324087 -0.998364
v 0.003012 1.312589 -1.006494
v -0.562822 1.320617 0.833049
v -0.567156 1.309047 0.839794
v -0.714873 1.331028 0.709213
v -0.720443 1.319582 0.714951
v -0.839673 1.338116 0.558300
v -0.846255 1.326752 0.562812
v -0.932396 1.339214 0.386033
v -0.939728 1.327859 0.389146
v -0.989515 1.333562 0.198969
v -0.997307 1.322100 0.200560
v -1.008947 1.324665 0.004304
v -1.016891 1.313027 0.004312
v -0.957092 1.266831 -0.387829
v -1.014781 1.263328 -0.195534
v -0.863312 1.276512 -0.565170
v -0.736926 1.286375 -0.720997
v -0.582405 1.291813 -0.849404
v -0.405234 1.289855 -0.945129
v -0.206113 1.252440 1.007171
v 0.002706 1.258019 1.026701
v -0.212353 1.280872 -1.004233
v -0.398613 1.255136 0.949063
v 0.002766 1.268714 -1.024402
v -0.576432 1.264979 0.854650
v -0.732442 1.275811 0.727591
v -0.860485 1.283192 0.572755
v -0.955611 1.284335 0.396009
v -1.014202 1.278331 0.204073
v -1.034120 1.268846 0.004333
v 0.003014 1.312868 0.848415
v -0.172430 1.309990 0.832327
v -0.483735 1.342680 -0.701019
v -0.337431 1.340532 -0.780101
v -0.611407 1.339096 -0.594954
v -0.715814 1.332010 -0.466182
v -0.793227 1.325147 -0.319628
v -0.840788 1.322699 -0.160782
v -0.856649 1.326272 0.004284
v -0.840085 1.332585 0.169230
v -0.791597 1.336560 0.327724
v -0.712954 1.335348 0.473684
v -0.607147 1.329259 0.601546
v -0.478276 1.320523 0.706451
v -0.331426 1.312758 0.784382
v -0.178182 1.332938 -0.828971
v 0.003070 1.322816 -0.845693
v -0.127467 1.330327 -0.578947
v 0.003082 1.325057 -0.590649
v -0.503609 1.333124 -0.325498
v -0.430437 1.335421 -0.415545
v -0.123506 1.318615 0.582663
v -0.234675 1.320718 0.549178
v -0.602070 1.330613 0.003626
v -0.591070 1.329822 -0.111830
v -0.427334 1.328658 0.421360
v -0.501314 1.331796 0.331931
v -0.556359 1.332961 0.229841
v -0.590366 1.332195 0.118990
v -0.337283 1.324478 0.494712
v -0.557827 1.330789 -0.222954
v 0.003045 1.318468 0.593868
v -0.341021 1.336156 -0.489621
v -0.238721 1.334421 -0.544820
v -0.082470 1.329922 -0.358257
v 0.003098 1.327815 -0.365491
v -0.151420 1.331726 -0.337152
v -0.314480 1.331067 0.206513
v -0.348624 1.331931 0.143168
v -0.369744 1.332355 0.074392
v -0.212817 1.328210 0.307506
v -0.268622 1.329763 0.262001
v -0.214875 1.332860 -0.303001
v -0.377035 1.332520 0.002819
v -0.370224 1.332667 -0.068806
v -0.349575 1.332926 -0.137736
v -0.315874 1.333222 -0.201327
v -0.149218 1.326697 0.341284
v 0.003080 1.324735 0.368967
v -0.080275 1.325460 0.362037
v -0.270398 1.333298 -0.257133
v 0.003108 1.329596 0.001800
v -1.014411 1.237920 -0.195526
v -1.033751 1.243475 0.004344
v -1.013834 1.253017 0.204086
v -0.955243 1.259050 0.396022
v -0.860116 1.257882 0.572764
v -0.732072 1.250443 0.727596
v -0.576060 1.239548 0.854652
v -0.398238 1.229652 0.949064
v 0.002624 1.243322 -1.024403
v -0.211986 1.255492 -1.004232
v -0.205737 1.226941 1.007171
v -0.404872 1.264504 -0.945125
v 0.002563 1.232556 1.026701
v -0.582045 1.266477 -0.849395
v -0.736562 1.261025 -0.720986
v -0.862944 1.251136 -0.565160
v -0.956722 1.241428 -0.387822
v -0.995880 1.169251 -0.192051
v -0.939202 1.172614 -0.380997
v -0.931540 1.161287 -0.377897
v -0.987759 1.157984 -0.190473
v -0.847062 1.181981 -0.555249
v -0.840144 1.170509 -0.550749
v -0.722881 1.191554 -0.708358
v -0.716962 1.179943 -0.702626
v -0.571052 1.196798 -0.834524
v -0.566354 1.185096 -0.827775
v -0.396969 1.194805 -0.928590
v -0.393674 1.183096 -0.921084
v 0.002175 1.163322 1.008830
v -0.201271 1.157973 0.989644
v -0.199534 1.146609 0.981688
v 0.002110 1.151828 1.000717
v -0.207449 1.185980 -0.986676
v -0.205684 1.174350 -0.978704
v -0.390415 1.160682 0.932555
v -0.387155 1.149316 0.925061
v 0.002236 1.174154 -1.006503
v 0.002171 1.162652 -0.998375
v -0.565134 1.170363 0.839797
v -0.560464 1.158892 0.833053
v -0.718427 1.181085 0.714966
v -0.712522 1.169518 0.709231
v -0.844244 1.188461 0.562845
v -0.837328 1.176841 0.558338
v -0.937720 1.189680 0.389194
v -0.930053 1.178069 0.386089
v -0.995297 1.183848 0.200608
v -0.987171 1.172334 0.199024
v -1.014875 1.174616 0.004343
v -1.006596 1.163254 0.004340
v -1.014040 1.212626 -0.195530
v -0.956350 1.216123 -0.387827
v -0.862571 1.225809 -0.565164
v -0.736188 1.235681 -0.720988
v -0.581670 1.241124 -0.849395
v -0.404496 1.239152 -0.945126
v 0.002421 1.207236 1.026700
v -0.205369 1.201615 1.007170
v -0.211608 1.230159 -1.004235
v -0.397870 1.204322 0.949063
v 0.002482 1.218041 -1.024406
v -0.575692 1.214215 0.854651
v -0.731704 1.225118 0.727597
v -0.859749 1.232576 0.572767
v -0.954876 1.233762 0.396027
v -1.013466 1.227730 0.204091
v -1.033382 1.218184 0.004345
v -0.170061 1.148187 0.832324
v 0.002107 1.151170 0.848412
v -0.335062 1.178995 -0.780099
v -0.481375 1.181159 -0.701005
v -0.609044 1.177575 -0.594936
v -0.713447 1.170482 -0.466170
v -0.790861 1.163620 -0.319620
v -0.838428 1.161202 -0.160770
v -0.854297 1.164871 0.004313
v -0.837739 1.171310 0.169274
v -0.789253 1.175334 0.327769
v -0.710608 1.174026 0.473715
v -0.604796 1.167759 0.601561
v -0.475919 1.158854 0.706454
v -0.329061 1.150974 0.784380
v 0.002165 1.161459 -0.845706
v -0.175798 1.171424 -0.828979
v 0.002177 1.163729 -0.590662
v -0.125088 1.168890 -0.578957
v -0.428072 1.173927 -0.415539
v -0.501246 1.171637 -0.325489
v -0.232315 1.159105 0.549178
v -0.121143 1.156997 0.582661
v -0.588713 1.168377 -0.111813
v -0.599717 1.169204 0.003648
v -0.498965 1.170370 0.331948
v -0.424982 1.167160 0.421370
v -0.588016 1.170814 0.119015
v -0.554010 1.171579 0.229864
v -0.334928 1.162910 0.494716
v -0.555466 1.169318 -0.222942
v 0.002139 1.156906 0.593865
v -0.338654 1.174661 -0.489620
v -0.236348 1.172940 -0.544824
v 0.002192 1.166445 -0.365500
v -0.080103 1.168496 -0.358264
v -0.149056 1.170274 -0.337156
v -0.346271 1.170463 0.143179
v -0.312127 1.169584 0.206522
v -0.367391 1.170895 0.074403
v -0.266268 1.168260 0.262007
v -0.210461 1.166689 0.307509
v -0.212512 1.171393 -0.303002
v -0.367868 1.171203 -0.068796
v -0.374681 1.171061 0.002831
v -0.313515 1.171748 -0.201322
v -0.347218 1.171456 -0.137728
v -0.146861 1.165165 0.341285
v -0.077917 1.163928 0.362036
v 0.002174 1.163234 0.368965
v -0.268038 1.171825 -0.257131
v 0.002202 1.168151 0.001797
v 1.003810 1.296541 -0.192062
v 0.947178 1.300557 -0.381005
v 0.939985 1.312330 -0.377906
v 0.996157 1.308376 -0.190486
v 0.855147 1.310945 -0.555264
v 0.848696 1.322562 -0.550766
v 0.731072 1.321888 -0.708383
v 0.725617 1.333353 -0.702655
v 0.579304 1.328824 -0.834547
v 0.575067 1.340183 -0.827801
v 0.405218 1.328819 -0.928598
v 0.402386 1.340161 -0.921093
v 0.209139 1.294506 0.989646
v 0.207872 1.306222 0.981691
v 0.215629 1.322143 -0.986672
v 0.214331 1.333548 -0.978700
v 0.398298 1.295065 0.932557
v 0.395506 1.306793 0.925063
v 0.573105 1.302651 0.839794
v 0.568901 1.314270 0.833049
v 0.726500 1.311466 0.714951
v 0.721059 1.322974 0.709213
v 0.852385 1.317225 0.562812
v 0.845931 1.328661 0.558300
v 0.945864 1.317282 0.389146
v 0.938660 1.328719 0.386033
v 1.003375 1.310879 0.200560
v 0.995712 1.322427 0.198969
v 1.022856 1.301586 0.004312
v 1.015043 1.313312 0.004304
v 1.020189 1.251914 -0.195534
v 0.962542 1.256064 -0.387829
v 0.868877 1.266797 -0.565170
v 0.742610 1.278076 -0.720997
v 0.588159 1.285248 -0.849404
v 0.410977 1.285277 -0.945129
v 0.211450 1.250098 1.007171
v 0.218008 1.278458 -1.004233
v 0.403967 1.250635 0.949063
v 0.581886 1.258482 0.854650
v 0.738007 1.267563 0.727591
v 0.866125 1.273508 0.572755
v 0.961258 1.273583 0.396009
v 1.019778 1.266923 0.204073
v 1.039588 1.257215 0.004333
v 0.178415 1.308022 0.832327
v 0.343748 1.336711 -0.780101
v 0.490066 1.337217 -0.701019
v 0.617690 1.332202 -0.594954
v 0.722011 1.323945 -0.466182
v 0.799343 1.316215 -0.319628
v 0.846873 1.313233 -0.160782
v 0.862773 1.316628 0.004284
v 0.846281 1.323126 0.169230
v 0.797840 1.327645 0.327724
v 0.719189 1.327315 0.473684
v 0.613320 1.322414 0.601546
v 0.484359 1.315124 0.706451
v 0.337431 1.309007 0.784382
v 0.184423 1.330904 -0.828971
v 0.133682 1.328862 -0.578947
v 0.436690 1.330557 -0.415545
v 0.509832 1.327440 -0.325498
v 0.240775 1.318051 0.549178
v 0.129590 1.317195 0.582663
v 0.597251 1.323157 -0.111830
v 0.608258 1.323825 0.003626
v 0.507522 1.326138 0.331931
v 0.433512 1.323829 0.421360
v 0.596573 1.325537 0.118990
v 0.562577 1.326685 0.229841
v 0.343420 1.320660 0.494712
v 0.564020 1.324497 -0.222954
v 0.347289 1.332295 -0.489621
v 0.244975 1.331708 -0.544820
v 0.088683 1.328962 -0.358257
v 0.157650 1.329992 -0.337152
v 0.354844 1.327985 0.143168
v 0.320692 1.327504 0.206513
v 0.375967 1.328172 0.074392
v 0.274822 1.326715 0.262001
v 0.219003 1.325788 0.307506
v 0.221113 1.330415 -0.303001
v 0.376450 1.328479 -0.068806
v 0.383259 1.328256 0.002819
v 0.322110 1.329643 -0.201327
v 0.355805 1.328970 -0.137736
v 0.155391 1.324989 0.341284
v 0.086439 1.324525 0.362037
v 0.276638 1.330230 -0.257133
v 1.038935 1.231849 0.004344
v 1.019534 1.226511 -0.195526
v 1.019126 1.241614 0.204086
v 0.960607 1.248304 0.396022
v 0.865473 1.248203 0.572764
v 0.737353 1.242201 0.727596
v 0.581228 1.233057 0.854652
v 0.403307 1.225156 0.949064
v 0.217357 1.253084 -1.004232
v 0.210788 1.224605 1.007171
v 0.410332 1.259932 -0.945125
v 0.587515 1.259917 -0.849395
v 0.741962 1.252732 -0.720986
v 0.868225 1.241426 -0.565160
v 0.961888 1.230667 -0.387822
v 1.000234 1.158055 -0.192051
v 0.991986 1.146880 -0.190473
v 0.935809 1.150813 -0.377897
v 0.943597 1.162053 -0.380997
v 0.844521 1.161059 -0.550749
v 0.851568 1.172454 -0.555249
v 0.721454 1.171875 -0.702626
v 0.727502 1.183419 -0.708358
v 0.570912 1.178717 -0.827775
v 0.575742 1.190366 -0.834524
v 0.398221 1.178654 -0.921084
v 0.401647 1.190326 -0.928590
v 0.203684 1.144347 0.981688
v 0.205548 1.155692 0.989644
v 0.210145 1.172018 -0.978704
v 0.212040 1.183627 -0.986676
v 0.391323 1.144950 0.925061
v 0.394711 1.156278 0.932555
v 0.564729 1.152580 0.833053
v 0.569527 1.163999 0.839797
v 0.716897 1.161501 0.709231
v 0.722931 1.173001 0.714966
v 0.841777 1.167423 0.558338
v 0.848823 1.178964 0.562845
v 0.934510 1.167611 0.386089
v 0.942306 1.179135 0.389194
v 0.991559 1.161235 0.199024
v 0.999814 1.172658 0.200608
v 1.010882 1.151939 0.004340
v 1.019288 1.163206 0.004343
v 0.961232 1.205367 -0.387827
v 1.018879 1.201223 -0.195530
v 0.867567 1.216105 -0.565164
v 0.741303 1.227394 -0.720988
v 0.586856 1.234570 -0.849395
v 0.409671 1.234585 -0.945126
v 0.210135 1.199284 1.007170
v 0.216694 1.227756 -1.004235
v 0.402654 1.199831 0.949063
v 0.580576 1.207729 0.854651
v 0.736701 1.216882 0.727597
v 0.864821 1.222903 0.572767
v 0.959956 1.223022 0.396027
v 1.018474 1.216333 0.204091
v 1.038282 1.206564 0.004345
v 0.174230 1.146255 0.832324
v 0.485894 1.175733 -0.701005
v 0.339567 1.175211 -0.780099
v 0.613515 1.170717 -0.594936
v 0.717832 1.162454 -0.466170
v 0.795164 1.154724 -0.319620
v 0.842701 1.151773 -0.160770
v 0.858610 1.155263 0.004313
v 0.842125 1.161888 0.169274
v 0.793688 1.166456 0.327769
v 0.715033 1.166030 0.473715
v 0.609158 1.160950 0.601561
v 0.480188 1.153491 0.706454
v 0.333252 1.147259 0.784380
v 0.180227 1.169427 -0.828979
v 0.129493 1.167462 -0.578957
v 0.505657 1.165990 -0.325489
v 0.432514 1.169100 -0.415539
v 0.125414 1.155614 0.582661
v 0.236603 1.156475 0.549178
v 0.604095 1.162452 0.003648
v 0.593083 1.161748 -0.111813
v 0.429348 1.162369 0.421370
v 0.503362 1.164748 0.331948
v 0.558418 1.165339 0.229864
v 0.592413 1.164193 0.119015
v 0.339252 1.159128 0.494716
v 0.559848 1.163063 -0.222942
v 0.343110 1.170837 -0.489620
v 0.240791 1.170263 -0.544824
v 0.084506 1.167573 -0.358264
v 0.153474 1.168577 -0.337156
v 0.316527 1.166058 0.206522
v 0.350679 1.166554 0.143179
v 0.371802 1.166749 0.074403
v 0.214836 1.164303 0.307509
v 0.270656 1.165248 0.262007
v 0.216939 1.168984 -0.303002
v 0.379094 1.166833 0.002831
v 0.372283 1.167051 -0.068796
v 0.351637 1.167536 -0.137728
v 0.317940 1.168206 -0.201322
v 0.151222 1.163493 0.341285
v 0.082269 1.163030 0.362036
v 0.272466 1.168793 -0.257131
vn -0.8261 0.4621 -0.3225
vn -0.8707 0.4603 -0.1732
vn -0.4910 0.8654 -0.1001
vn -0.4702 0.8672 -0.1639
vn -0.7497 0.4671 -0.4688
vn -0.4279 0.8727 -0.2352
vn -0.6390 0.4729 -0.6067
vn -0.3604 0.8789 -0.3124
vn -0.4953 0.4775 -0.7257
vn -0.2678 0.8834 -0.3845
vn -0.3270 0.4796 -0.8143
vn -0.1588 0.8839 -0.4399
vn -0.1723 0.4696 0.8659
vn 0.0027 0.4749 0.8800
vn 0.0049 0.8773 0.4799
vn -0.0983 0.8704 0.4825
vn -0.1471 0.4791 -0.8653
vn -0.0498 0.8803 -0.4718
vn -0.3235 0.4674 0.8227
vn -0.1635 0.8697 0.4658
vn 0.0027 0.4747 -0.8802
vn 0.0049 0.8753 -0.4836
vn -0.4685 0.4693 0.7485
vn -0.2331 0.8730 0.4285
vn -0.6062 0.4718 0.6402
vn -0.3102 0.8773 0.3663
vn -0.7253 0.4733 0.4999
vn -0.3834 0.8802 0.2796
vn -0.8155 0.4726 0.3340
vn -0.4420 0.8800 0.1741
vn -0.8694 0.4686 0.1565
vn -0.4790 0.8754 0.0650
vn -0.8861 0.4633 -0.0153
vn -0.4791 0.8754 0.0650
vn -0.4941 0.8689 -0.0285
vn -0.9132 0.1742 -0.3683
vn -0.9664 0.1724 -0.1906
vn -0.8255 0.1783 -0.5355
vn -0.7041 0.1825 -0.6863
vn -0.5514 0.1864 -0.8131
vn -0.3745 0.1887 -0.9078
vn -0.1900 0.1838 0.9644
vn 0.0011 0.1917 0.9815
vn -0.1816 0.1897 -0.9649
vn -0.3696 0.1811 0.9114
vn 0.0027 0.4747 -0.8801
vn 0.0010 0.1837 -0.9830
vn -0.5362 0.1816 0.8243
vn -0.6870 0.1822 0.7034
vn -0.8137 0.1822 0.5520
vn -0.9085 0.1813 0.3764
vn -0.9660 0.1785 0.1868
vn -0.9846 0.1745 -0.0048
vn 0.0056 0.9999 0.0129
vn -0.0036 0.9998 0.0186
vn 0.0104 0.9997 0.0226
vn 0.0352 0.9993 0.0118
vn -0.0113 0.9994 0.0317
vn -0.3604 0.8790 -0.3123
vn -0.0237 0.9992 0.0323
vn -0.0260 0.9995 0.0185
vn -0.0208 0.9998 -0.0072
vn -0.0127 0.9995 -0.0283
vn -0.0126 0.9995 -0.0283
vn -0.0025 0.9996 -0.0294
vn 0.0104 0.9999 -0.0126
vn 0.0244 0.9997 0.0091
vn 0.0347 0.9991 0.0253
vn 0.0355 0.9989 0.0320
vn 0.0211 0.9994 0.0286
vn 0.0502 0.9987 0.0047
vn 0.0056 1.0000 0.0025
vn 0.0401 0.9992 -0.0026
vn 0.0056 1.0000 -0.0063
vn -0.0153 0.9997 0.0190
vn -0.0038 0.9998 0.0198
vn 0.0012 0.9995 0.0314
vn 0.0140 0.9993 0.0354
vn -0.0120 0.9998 -0.0145
vn -0.0183 0.9998 -0.0038
vn 0.0228 0.9994 0.0253
vn 0.0169 0.9998 0.0117
vn 0.0074 1.0000 -0.0034
vn -0.0031 0.9999 -0.0143
vn 0.0223 0.9992 0.0337
vn -0.0200 0.9997 0.0102
vn 0.0056 0.9996 0.0283
vn 0.0128 0.9998 0.0143
vn 0.0105 0.9997 0.0227
vn 0.0303 0.9995 0.0057
vn 0.0288 0.9996 -0.0053
vn 0.0056 1.0000 -0.0068
vn 0.0235 0.9997 -0.0010
vn 0.0114 0.9999 0.0119
vn 0.0069 1.0000 0.0042
vn 0.0026 1.0000 -0.0013
vn 0.0155 0.9996 0.0232
vn 0.0149 0.9997 0.0189
vn 0.0134 0.9999 0.0044
vn -0.0005 1.0000 -0.0020
vn -0.0026 1.0000 0.0017
vn -0.0031 1.0000 0.0067
vn -0.0010 1.0000 0.0095
vn 0.0130 0.9996 0.0243
vn 0.0056 0.9997 0.0218
vn 0.0077 0.9997 0.0231
vn 0.0046 1.0000 0.0085
vn 0.0169 0.9998 0.0118
vn -0.0031 0.9999 -0.0142
vn 0.0056 1.0000 0.0062
vn 0.0070 1.0000 0.0042
vn 0.0057 1.0000 0.0062
vn -0.9812 -0.0143 -0.1926
vn -0.9999 -0.0146 0.0020
vn -0.9803 -0.0142 0.1971
vn -0.9228 -0.0133 0.3850
vn -0.8297 -0.0119 0.5581
vn -0.7047 -0.0102 0.7094
vn -0.5532 -0.0080 0.8330
vn -0.3809 -0.0056 0.9246
vn -0.0000 -0.0009 -1.0000
vn -0.1944 -0.0024 -0.9809
vn -0.1921 -0.0024 0.9814
vn -0.3862 -0.0057 -0.9224
vn -0.0000 -0.0010 1.0000
vn -0.5599 -0.0082 -0.8285
vn -0.7110 -0.0105 -0.7031
vn -0.8339 -0.0122 -0.5518
vn -0.9251 -0.0136 -0.3796
vn -0.4554 -0.8862 -0.0854
vn -0.8542 -0.4929 -0.1653
vn -0.8002 -0.4907 -0.3449
vn -0.4221 -0.8838 -0.2020
vn -0.7163 -0.4856 -0.5011
vn -0.3765 -0.8777 -0.2966
vn -0.6110 -0.4807 -0.6290
vn -0.3256 -0.8721 -0.3653
vn -0.4888 -0.4771 -0.7304
vn -0.2724 -0.8684 -0.4143
vn -0.3513 -0.4756 -0.8065
vn -0.2133 -0.8676 -0.4492
vn -0.0049 -0.8752 0.4838
vn -0.0027 -0.4767 0.8791
vn -0.1654 -0.4823 0.8602
vn -0.0868 -0.8807 0.4657
vn -0.1940 -0.4759 -0.8578
vn -0.1373 -0.8695 -0.4744
vn -0.1654 -0.4823 0.8603
vn -0.3468 -0.4844 0.8032
vn -0.2043 -0.8812 0.4263
vn -0.0027 -0.4807 -0.8769
vn -0.0049 -0.8782 -0.4782
vn -0.5042 -0.4831 0.7158
vn -0.3007 -0.8771 0.3746
vn -0.6325 -0.4817 0.6066
vn -0.3696 -0.8733 0.3174
vn -0.7328 -0.4814 0.4809
vn -0.4169 -0.8715 0.2582
vn -0.8062 -0.4825 0.3423
vn -0.4480 -0.8721 0.1970
vn -0.8532 -0.4858 0.1898
vn -0.4660 -0.8759 0.1253
vn -0.8713 -0.4904 0.0192
vn -0.4700 -0.8821 0.0310
vn -0.9031 -0.2052 -0.3773
vn -0.9601 -0.2072 -0.1876
vn -0.8119 -0.2012 -0.5480
vn -0.6921 -0.1972 -0.6943
vn -0.5479 -0.1939 -0.8138
vn -0.3834 -0.1917 -0.9035
vn -0.1873 -0.1951 0.9627
vn -0.0027 -0.4767 0.8790
vn -0.0011 -0.1872 0.9823
vn -0.1999 -0.1907 -0.9611
vn -0.3788 -0.1978 0.9041
vn -0.0011 -0.1969 -0.9804
vn -0.5502 -0.1976 0.8113
vn -0.6967 -0.1977 0.6896
vn -0.8154 -0.1981 0.5439
vn -0.9036 -0.1992 0.3793
vn -0.9588 -0.2018 0.1999
vn -0.9787 -0.2053 0.0089
vn -0.0056 -0.9999 -0.0135
vn 0.0041 -0.9998 -0.0193
vn -0.0104 -0.9997 -0.0225
vn -0.0352 -0.9993 -0.0117
vn 0.0113 -0.9994 -0.0317
vn 0.0238 -0.9992 -0.0322
vn 0.0261 -0.9995 -0.0183
vn 0.0209 -0.9998 0.0076
vn 0.0126 -0.9995 0.0289
vn 0.0023 -0.9995 0.0300
vn 0.0024 -0.9996 0.0299
vn -0.0109 -0.9999 0.0126
vn -0.0251 -0.9996 -0.0095
vn -0.0354 -0.9990 -0.0260
vn -0.0360 -0.9988 -0.0328
vn -0.0212 -0.9993 -0.0294
vn -0.0502 -0.9987 -0.0045
vn -0.0056 -1.0000 -0.0022
vn -0.1374 -0.8695 -0.4744
vn -0.0401 -0.9992 0.0027
vn -0.0056 -1.0000 0.0064
vn 0.0154 -0.9997 -0.0189
vn 0.0039 -0.9998 -0.0197
vn -0.0009 -0.9995 -0.0319
vn -0.0140 -0.9993 -0.0360
vn 0.0119 -0.9998 0.0149
vn 0.0182 -0.9998 0.0041
vn -0.0233 -0.9994 -0.0257
vn -0.0175 -0.9998 -0.0120
vn -0.0079 -1.0000 0.0035
vn 0.0027 -0.9999 0.0146
vn -0.0226 -0.9992 -0.0343
vn 0.0201 -0.9997 -0.0101
vn -0.0056 -0.9996 -0.0287
vn -0.0127 -0.9998 -0.0142
vn -0.0300 -0.9995 -0.0056
vn -0.0288 -0.9996 0.0052
vn -0.0056 -1.0000 0.0067
vn -0.0232 -0.9997 0.0009
vn -0.0117 -0.9999 -0.0122
vn -0.0071 -1.0000 -0.0043
vn -0.0028 -1.0000 0.0013
vn -0.0157 -0.9996 -0.0234
vn -0.0151 -0.9997 -0.0192
vn -0.0133 -0.9999 -0.0044
vn 0.0004 -1.0000 0.0021
vn 0.0025 -1.0000 -0.0015
vn 0.0031 -1.0000 -0.0066
vn 0.0010 -1.0000 -0.0095
vn -0.0130 -0.9996 -0.0245
vn -0.0056 -0.9997 -0.0221
vn -0.0056 -0.9996 -0.0288
vn -0.0076 -0.9997 -0.0233
vn -0.0046 -1.0000 -0.0085
vn -0.0118 -0.9999 -0.0122
vn -0.0056 -1.0000 -0.0063
vn -0.0072 -1.0000 -0.0043
vn -0.9250 -0.0136 -0.3796
vn 0.5007 0.8598 -0.1001
vn 0.8758 0.4505 -0.1732
vn 0.8312 0.4528 -0.3225
vn 0.4799 0.8619 -0.1639
vn 0.7549 0.4587 -0.4688
vn 0.4377 0.8678 -0.2352
vn 0.6442 0.4657 -0.6067
vn 0.3702 0.8749 -0.3124
vn 0.5006 0.4720 -0.7257
vn 0.2777 0.8804 -0.3845
vn 0.3324 0.4759 -0.8143
vn 0.1687 0.8821 -0.4399
vn 0.2777 0.8803 -0.3845
vn 0.1775 0.4676 0.8659
vn 0.1080 0.8692 0.4825
vn 0.1525 0.4774 -0.8653
vn 0.0597 0.8797 -0.4718
vn 0.3287 0.4638 0.8227
vn 0.1733 0.8678 0.4658
vn 0.4737 0.4640 0.7485
vn 0.2429 0.8703 0.4285
vn 0.6115 0.4650 0.6402
vn 0.3200 0.8737 0.3663
vn 0.7306 0.4652 0.4999
vn 0.3932 0.8759 0.2796
vn 0.8208 0.4634 0.3340
vn 0.4518 0.8750 0.1741
vn 0.8746 0.4589 0.1565
vn 0.4889 0.8699 0.0650
vn 0.8912 0.4533 -0.0153
vn 0.5038 0.8633 -0.0285
vn 0.9151 0.1640 -0.3683
vn 0.9683 0.1616 -0.1906
vn 0.8275 0.1690 -0.5355
vn 0.7061 0.1746 -0.6863
vn 0.5535 0.1802 -0.8131
vn 0.3766 0.1845 -0.9078
vn 0.1920 0.1816 0.9644
vn 0.1837 0.1877 -0.9649
vn 0.3716 0.1770 0.9114
vn 0.1525 0.4774 -0.8654
vn 0.5382 0.1756 0.8243
vn 0.6890 0.1745 0.7034
vn 0.8157 0.1731 0.5520
vn 0.9105 0.1711 0.3764
vn 0.9680 0.1676 0.1868
vn 0.9865 0.1635 -0.0048
vn 0.0148 0.9997 0.0186
vn 0.0008 0.9997 0.0226
vn -0.0240 0.9996 0.0118
vn 0.0225 0.9992 0.0317
vn 0.0349 0.9989 0.0323
vn 0.0372 0.9991 0.0185
vn 0.0320 0.9995 -0.0072
vn 0.0238 0.9993 -0.0283
vn 0.0137 0.9995 -0.0294
vn 0.0008 0.9999 -0.0126
vn -0.0132 0.9999 0.0091
vn -0.0235 0.9994 0.0253
vn -0.0243 0.9992 0.0320
vn -0.0098 0.9995 0.0286
vn -0.0390 0.9992 0.0047
vn -0.0289 0.9996 -0.0026
vn 0.0266 0.9995 0.0190
vn 0.0150 0.9997 0.0198
vn 0.0100 0.9995 0.0314
vn -0.0028 0.9994 0.0354
vn 0.0233 0.9996 -0.0145
vn 0.0295 0.9996 -0.0038
vn -0.0116 0.9996 0.0253
vn -0.0057 0.9999 0.0117
vn 0.0038 1.0000 -0.0034
vn 0.0143 0.9998 -0.0143
vn -0.0110 0.9994 0.0337
vn 0.0312 0.9995 0.0102
vn 0.0009 0.9997 0.0225
vn -0.0016 0.9999 0.0143
vn -0.0191 0.9998 0.0057
vn -0.0028 0.9994 0.0355
vn -0.0176 0.9998 -0.0053
vn -0.0122 0.9999 -0.0010
vn -0.0002 0.9999 0.0119
vn 0.0044 1.0000 0.0042
vn 0.0086 1.0000 -0.0013
vn -0.0043 0.9997 0.0232
vn -0.0036 0.9998 0.0189
vn -0.0022 1.0000 0.0044
vn 0.0118 0.9999 -0.0020
vn 0.0138 0.9999 0.0017
vn 0.0143 0.9999 0.0067
vn 0.0122 0.9999 0.0095
vn -0.0018 0.9997 0.0243
vn 0.0035 0.9997 0.0231
vn 0.0066 0.9999 0.0085
vn -0.0037 0.9998 0.0189
vn 0.0143 0.9998 -0.0142
vn -0.0003 0.9999 0.0119
vn 0.0056 1.0000 0.0063
vn -0.0176 0.9998 -0.0052
vn 0.9809 -0.0254 -0.1926
vn 0.9997 -0.0258 0.0020
vn 0.9810 -0.0254 -0.1926
vn 0.9801 -0.0252 0.1971
vn 0.9226 -0.0236 0.3850
vn 0.8295 -0.0212 0.5581
vn 0.7046 -0.0181 0.7094
vn 0.5530 -0.0142 0.8330
vn 0.3808 -0.0098 0.9246
vn 0.1944 -0.0045 -0.9809
vn 0.1921 -0.0045 0.9814
vn 0.3861 -0.0100 -0.9224
vn 0.5598 -0.0145 -0.8285
vn 0.7108 -0.0184 -0.7031
vn 0.8337 -0.0216 -0.5518
vn 0.9248 -0.0239 -0.3796
vn 0.9249 -0.0239 -0.3796
vn 0.7946 -0.4996 -0.3449
vn 0.8486 -0.5025 -0.1653
vn 0.4455 -0.8912 -0.0854
vn 0.4121 -0.8885 -0.2020
vn 0.7108 -0.4936 -0.5011
vn 0.3666 -0.8819 -0.2966
vn 0.6056 -0.4875 -0.6290
vn 0.3666 -0.8818 -0.2966
vn 0.3158 -0.8757 -0.3653
vn 0.4834 -0.4825 -0.7304
vn 0.2626 -0.8714 -0.4143
vn 0.3459 -0.4795 -0.8065
vn 0.2036 -0.8699 -0.4492
vn 0.1600 -0.4842 0.8602
vn 0.0770 -0.8816 0.4657
vn 0.1887 -0.4780 -0.8578
vn 0.1275 -0.8710 -0.4744
vn 0.3413 -0.4883 0.8032
vn 0.1944 -0.8834 0.4263
vn 0.4988 -0.4887 0.7158
vn 0.2908 -0.8804 0.3746
vn 0.6270 -0.4888 0.6066
vn 0.3597 -0.8774 0.3174
vn 0.7274 -0.4896 0.4809
vn 0.4071 -0.8761 0.2582
vn 0.8008 -0.4915 0.3423
vn 0.4382 -0.8770 0.1970
vn 0.8477 -0.4953 0.1898
vn 0.4561 -0.8811 0.1253
vn 0.8657 -0.5001 0.0192
vn 0.4600 -0.8874 0.0310
vn 0.9007 -0.2153 -0.3773
vn 0.9578 -0.2180 -0.1876
vn 0.8096 -0.2102 -0.5480
vn 0.6899 -0.2050 -0.6943
vn 0.5457 -0.2000 -0.8138
vn 0.3812 -0.1960 -0.9035
vn 0.1851 -0.1972 0.9627
vn 0.1977 -0.1929 -0.9611
vn 0.3766 -0.2021 0.9041
vn 0.5479 -0.2038 0.8113
vn 0.6944 -0.2055 0.6896
vn 0.8132 -0.2072 0.5439
vn 0.9013 -0.2093 0.3793
vn 0.9565 -0.2125 0.1999
vn 0.9763 -0.2163 0.0089
vn 0.9577 -0.2180 -0.1876
vn -0.0153 -0.9997 -0.0193
vn -0.0008 -0.9997 -0.0225
vn 0.0239 -0.9996 -0.0117
vn -0.0225 -0.9992 -0.0317
vn -0.0350 -0.9989 -0.0322
vn -0.0373 -0.9991 -0.0183
vn -0.0321 -0.9995 0.0076
vn 0.4121 -0.8885 -0.2019
vn -0.0238 -0.9993 0.0289
vn -0.0135 -0.9995 0.0300
vn -0.0003 -0.9999 0.0126
vn 0.0139 -0.9999 -0.0095
vn 0.0242 -0.9994 -0.0260
vn 0.0248 -0.9992 -0.0328
vn 0.0100 -0.9995 -0.0294
vn 0.0389 -0.9992 -0.0045
vn 0.0289 -0.9996 0.0027
vn -0.0266 -0.9995 -0.0189
vn -0.0151 -0.9997 -0.0197
vn -0.0103 -0.9994 -0.0319
vn 0.0028 -0.9993 -0.0360
vn -0.0231 -0.9996 0.0149
vn -0.0295 -0.9996 0.0041
vn 0.0121 -0.9996 -0.0257
vn 0.0063 -0.9999 -0.0120
vn -0.0034 -1.0000 0.0035
vn -0.0140 -0.9998 0.0146
vn 0.0114 -0.9993 -0.0343
vn -0.0313 -0.9995 -0.0101
vn 0.0015 -0.9999 -0.0142
vn 0.0188 -0.9998 -0.0056
vn 0.0176 -0.9998 0.0052
vn 0.0120 -0.9999 0.0009
vn 0.0005 -0.9999 -0.0122
vn -0.0041 -1.0000 -0.0043
vn -0.0084 -1.0000 0.0013
vn 0.0045 -0.9997 -0.0234
vn 0.0039 -0.9998 -0.0192
vn 0.0021 -1.0000 -0.0044
vn -0.0116 -0.9999 0.0021
vn -0.0137 -0.9999 -0.0015
vn -0.0143 -0.9999 -0.0066
vn -0.0122 -0.9999 -0.0095
vn 0.0018 -0.9997 -0.0245
vn -0.0037 -0.9997 -0.0233
vn -0.0066 -0.9999 -0.0085
vn -0.0140 -0.9998 0.0145
vt 0.873880 0.107446
vt 0.885425 0.051085
vt 0.890144 0.053345
vt 0.878681 0.109251
vt 0.868092 0.172607
vt 0.872915 0.173887
vt 0.866401 0.244152
vt 0.871216 0.244857
vt 0.867462 0.319466
vt 0.872251 0.319566
vt 0.870368 0.395736
vt 0.875127 0.395220
vt 0.962257 0.154741
vt 0.969342 0.076828
vt 0.973793 0.077801
vt 0.966794 0.155207
vt 0.875114 0.469940
vt 0.879838 0.468825
vt 0.959818 0.230673
vt 0.964380 0.230526
vt 0.883694 0.544127
vt 0.888377 0.542530
vt 0.961491 0.305354
vt 0.966021 0.304604
vt 0.965229 0.375766
vt 0.969715 0.374448
vt 0.969469 0.439116
vt 0.973913 0.437288
vt 0.973178 0.492950
vt 0.977591 0.490690
vt 0.202785 0.765758
vt 0.145543 0.723416
vt 0.147367 0.720969
vt 0.204147 0.762971
vt 0.266479 0.794310
vt 0.267327 0.791295
vt 0.903161 0.005701
vt 0.907713 0.008329
vt 0.856920 0.103560
vt 0.868647 0.046195
vt 0.851085 0.169876
vt 0.849414 0.242685
vt 0.850531 0.319334
vt 0.853501 0.396961
vt 0.945557 0.153474
vt 0.952826 0.074584
vt 0.858324 0.472487
vt 0.943063 0.230755
vt 0.866976 0.547610
vt 0.944811 0.306765
vt 0.948656 0.378429
vt 0.953001 0.442903
vt 0.956781 0.497690
vt 0.975938 0.535214
vt 0.959540 0.540700
vt 0.828899 0.173665
vt 0.831981 0.244861
vt 0.821339 0.242003
vt 0.818283 0.169547
vt 0.886755 0.000000
vt 0.022667 0.376233
vt 0.037313 0.295455
vt 0.088318 0.311794
vt 0.075716 0.380935
vt 0.640130 0.655092
vt 0.591192 0.711447
vt 0.557429 0.665181
vt 0.598905 0.617433
vt 0.533827 0.755888
vt 0.508811 0.702856
vt 0.470306 0.786905
vt 0.454963 0.729142
vt 0.403020 0.803456
vt 0.397928 0.743147
vt 0.334480 0.804941
vt 0.339847 0.744376
vt 0.282948 0.732773
vt 0.229421 0.708732
vt 0.181320 0.673106
vt 0.099174 0.666850
vt 0.140494 0.627220
vt 0.061405 0.602675
vt 0.108501 0.572820
vt 0.035488 0.530921
vt 0.086552 0.512012
vt 0.022409 0.454419
vt 0.075483 0.447190
vt 0.706861 0.509938
vt 0.678666 0.589006
vt 0.631574 0.561452
vt 0.655725 0.493557
vt 0.553030 0.515129
vt 0.570316 0.466197
vt 0.429600 0.632501
vt 0.467264 0.614048
vt 0.164369 0.388946
vt 0.164194 0.435268
vt 0.309274 0.635022
vt 0.349067 0.643178
vt 0.187276 0.523046
vt 0.209652 0.561082
vt 0.238204 0.593193
vt 0.271842 0.618152
vt 0.171928 0.480556
vt 0.389694 0.642328
vt 0.173587 0.339109
vt 0.501240 0.587635
vt 0.530208 0.554237
vt 0.483729 0.474159
vt 0.494917 0.442044
vt 0.469599 0.498398
vt 0.270804 0.502734
vt 0.288522 0.522654
vt 0.309392 0.538151
vt 0.247393 0.452820
vt 0.256918 0.479153
vt 0.451660 0.519124
vt 0.332616 0.548632
vt 0.357302 0.553699
vt 0.382505 0.553160
vt 0.407257 0.547031
vt 0.242595 0.424749
vt 0.248929 0.363244
vt 0.242708 0.396024
vt 0.430609 0.535542
vt 0.371913 0.402640
vt 0.818308 0.317810
vt 0.810268 0.316999
vt 0.813310 0.241192
vt 0.810272 0.168737
vt 0.807002 0.103009
vt 0.799000 0.102199
vt 0.947665 0.497363
vt 0.943876 0.442576
vt 0.939509 0.378102
vt 0.935642 0.306437
vt 0.933875 0.230426
vt 0.549304 0.797619
vt 0.584397 0.753055
vt 0.589309 0.758505
vt 0.554203 0.801634
vt 0.936364 0.153144
vt 0.849596 0.472607
vt 0.844782 0.397078
vt 0.026221 0.642637
vt 0.021908 0.587581
vt 0.028968 0.585834
vt 0.841818 0.319450
vt 0.840697 0.242802
vt 0.842359 0.169994
vt 0.810858 0.394195
vt 0.798431 0.468131
vt 0.790402 0.467320
vt 0.802819 0.393384
vt 0.780154 0.314634
vt 0.785224 0.314937
vt 0.777880 0.389988
vt 0.772859 0.389079
vt 0.765625 0.462631
vt 0.760682 0.461136
vt 0.363813 0.949055
vt 0.363745 0.945180
vt 0.409479 0.932983
vt 0.409272 0.937002
vt 0.451744 0.924029
vt 0.450242 0.927858
vt 0.488372 0.939761
vt 0.485884 0.942963
vt 0.000001 0.595124
vt 0.003406 0.593758
vt 0.008389 0.645724
vt 0.004947 0.646354
vt 0.543818 0.855613
vt 0.540728 0.853734
vt 0.568101 0.813638
vt 0.570763 0.816050
vt 0.010939 0.695204
vt 0.007421 0.695199
vt 0.601774 0.774064
vt 0.603961 0.777120
vt 0.007577 0.703857
vt 0.010788 0.702064
vt 0.026305 0.749094
vt 0.022962 0.750488
vt 0.907713 0.302521
vt 0.911490 0.303568
vt 0.915295 0.373982
vt 0.911484 0.372368
vt 0.721954 0.002231
vt 0.726619 -0.000000
vt 0.754193 0.046721
vt 0.749308 0.048575
vt 0.774044 0.103869
vt 0.769005 0.105262
vt 0.785151 0.169248
vt 0.780039 0.170115
vt 0.788182 0.240446
vt 0.783071 0.240741
vt 0.794811 0.392581
vt 0.802264 0.316196
vt 0.782386 0.466516
vt 0.763682 0.535082
vt 0.747206 0.529998
vt 0.738015 0.595566
vt 0.721954 0.589424
vt 0.734781 0.674674
vt 0.721954 0.670602
vt 0.734781 0.595566
vt 0.456508 0.911069
vt 0.496127 0.928106
vt 0.020004 0.643672
vt 0.015258 0.589539
vt 0.559045 0.805730
vt 0.530625 0.847334
vt 0.022736 0.694783
vt 0.593915 0.763846
vt 0.926509 0.306112
vt 0.909769 0.228883
vt 0.924743 0.230100
vt 0.930379 0.377776
vt 0.934752 0.442251
vt 0.919609 0.437334
vt 0.790998 0.101393
vt 0.770814 0.043228
vt 0.802270 0.167931
vt 0.805307 0.240387
vt 0.714071 0.043356
vt 0.710467 0.005438
vt 0.758954 0.000001
vt 0.755971 0.038494
vt 0.914459 0.391483
vt 0.948477 0.409566
vt 0.916176 0.449315
vt 0.885113 0.426556
vt 0.936745 0.353406
vt 0.972836 0.365615
vt 0.952047 0.313439
vt 0.989527 0.319399
vt 0.960449 0.272505
vt 0.998729 0.271976
vt 0.961785 0.231743
vt 0.999999 0.224746
vt 0.956004 0.192279
vt 0.993083 0.179081
vt 0.943284 0.155218
vt 0.978119 0.136187
vt 0.923983 0.121671
vt 0.955514 0.097265
vt 0.898705 0.092653
vt 0.925969 0.063453
vt 0.868221 0.069064
vt 0.890394 0.035813
vt 0.833476 0.051761
vt 0.849866 0.015425
vt 0.795563 0.041520
vt 0.805556 0.003447
vt 0.847627 0.458681
vt 0.877233 0.485510
vt 0.832561 0.527161
vt 0.801687 0.486654
vt 0.811277 0.399449
vt 0.779122 0.412706
vt 0.889052 0.301453
vt 0.876942 0.330061
vt 0.751085 0.103618
vt 0.779376 0.105555
vt 0.893509 0.213910
vt 0.897292 0.242486
vt 0.831203 0.125217
vt 0.852960 0.142061
vt 0.870951 0.162910
vt 0.884645 0.187077
vt 0.806383 0.112991
vt 0.895826 0.271959
vt 0.720453 0.107442
vt 0.859346 0.356736
vt 0.837502 0.380294
vt 0.783660 0.345075
vt 0.762784 0.352576
vt 0.799972 0.334546
vt 0.812261 0.186028
vt 0.823621 0.199433
vt 0.832075 0.214968
vt 0.782654 0.167404
vt 0.798440 0.175223
vt 0.813989 0.320958
vt 0.837488 0.232165
vt 0.839589 0.250406
vt 0.838251 0.269082
vt 0.833446 0.287533
vt 0.765423 0.162772
vt 0.727031 0.164386
vt 0.747392 0.161618
vt 0.825263 0.305053
vt 0.741609 0.258645
vt 0.938547 0.497038
vt 0.927233 0.152819
vt 0.840884 0.472731
vt 0.836064 0.397202
vt 0.721954 0.674674
vt 0.731098 0.674674
vt 0.724821 0.753476
vt 0.833100 0.319573
vt 0.831981 0.242925
vt 0.833649 0.170117
vt 0.439003 0.403534
vt 0.441431 0.400204
vt 0.482744 0.433353
vt 0.480365 0.436116
vt 0.520109 0.468308
vt 0.517633 0.470875
vt 0.557235 0.503702
vt 0.554451 0.506267
vt 0.597086 0.539422
vt 0.593497 0.542566
vt 0.668856 0.556634
vt 0.668120 0.559927
vt 0.973125 0.003148
vt 0.977591 0.004594
vt 0.732032 0.569285
vt 0.731734 0.573029
vt 0.073992 0.536755
vt 0.070762 0.535180
vt 0.096264 0.491726
vt 0.731098 0.674674
vt 0.735596 0.676375
vt 0.731098 0.739318
vt 0.907713 0.608444
vt 0.903169 0.610460
vt 0.099423 0.493782
vt 0.131275 0.454723
vt 0.133957 0.457004
vt 0.170074 0.421764
vt 0.172476 0.424309
vt 0.213956 0.392131
vt 0.216061 0.395027
vt 0.262494 0.362389
vt 0.265549 0.368539
vt 0.266674 0.364209
vt 0.328065 0.369359
vt 0.327581 0.372915
vt 0.386730 0.381103
vt 0.385407 0.384467
vt 0.490907 0.424068
vt 0.450129 0.389218
vt 0.528425 0.459376
vt 0.565892 0.494302
vt 0.607796 0.528803
vt 0.672330 0.545565
vt 0.956560 0.000000
vt 0.733561 0.556749
vt 0.085793 0.484737
vt 0.060130 0.529845
vt 0.794482 0.560517
vt 0.792975 0.573004
vt 0.122335 0.446872
vt 0.161880 0.413081
vt 0.206125 0.382739
vt 0.251259 0.346753
vt 0.330062 0.357211
vt 0.269801 0.350453
vt 0.391229 0.369808
vt 0.064662 0.218745
vt 0.111671 0.246096
vt 0.657228 0.290926
vt 0.708409 0.271871
vt 0.721954 0.348242
vt 0.668715 0.355640
vt 0.634773 0.230484
vt 0.681909 0.200565
vt 0.602317 0.176551
vt 0.643626 0.136935
vt 0.561140 0.131084
vt 0.595063 0.083274
vt 0.512804 0.095766
vt 0.538041 0.041567
vt 0.459161 0.071958
vt 0.474753 0.013426
vt 0.402246 0.060620
vt 0.407600 -0.000000
vt 0.344211 0.062247
vt 0.339120 0.001876
vt 0.287265 0.076812
vt 0.271921 0.019031
vt 0.233578 0.103765
vt 0.208564 0.050811
vt 0.185207 0.142047
vt 0.151471 0.095973
vt 0.144030 0.190132
vt 0.102861 0.152714
vt 0.668735 0.422094
vt 0.721954 0.426672
vt 0.579793 0.414763
vt 0.533461 0.243011
vt 0.556131 0.280790
vt 0.190307 0.291675
vt 0.212920 0.252541
vt 0.433313 0.169863
vt 0.470851 0.186478
vt 0.275498 0.192202
vt 0.313041 0.173362
vt 0.352877 0.163158
vt 0.393483 0.161982
vt 0.241689 0.218945
vt 0.504665 0.211175
vt 0.571781 0.323100
vt 0.579779 0.368340
vt 0.501270 0.408380
vt 0.501273 0.379615
vt 0.335899 0.258621
vt 0.360616 0.252294
vt 0.385815 0.251556
vt 0.291648 0.286861
vt 0.312612 0.270294
vt 0.496342 0.351563
vt 0.410533 0.256432
vt 0.433824 0.266734
vt 0.454795 0.282065
vt 0.472640 0.301839
vt 0.273813 0.307681
vt 0.259794 0.331951
vt 0.486671 0.325303
vt 0.454925 0.383155
vt 0.393578 0.363677
vt 0.331153 0.350704
vt 0.271433 0.343420
vt 0.244891 0.340931
vt 0.201694 0.378083
vt 0.157310 0.408486
vt 0.117516 0.442685
vt 0.080019 0.480989
vt 0.795320 0.553815
vt 0.734571 0.550101
vt 0.054483 0.527006
vt 0.674421 0.539373
vt 0.033719 0.578117
vt 0.028207 0.574455
vt 0.612745 0.522541
vt 0.570431 0.489190
vt 0.532923 0.454538
vt 0.495453 0.419184
vt 0.508770 0.405276
vt 0.469594 0.365906
vt 0.473029 0.362612
vt 0.511487 0.402833
vt 0.545703 0.440704
vt 0.548188 0.438121
vt 0.583147 0.474400
vt 0.585549 0.471526
vt 0.625495 0.504806
vt 0.627745 0.501334
vt 0.680880 0.521540
vt 0.682189 0.518097
vt 0.038020 0.519146
vt 0.012971 0.563944
vt 0.010079 0.561830
vt 0.034821 0.517657
vt 0.737949 0.530998
vt 0.738646 0.527341
vt 0.061020 0.473904
vt 0.057471 0.472995
vt 0.797755 0.534401
vt 0.798145 0.530571
vt 0.103553 0.430639
vt 0.066541 0.468314
vt 0.064049 0.465837
vt 0.100835 0.428307
vt 0.143577 0.395017
vt 0.140933 0.392316
vt 0.187557 0.365088
vt 0.184802 0.362625
vt 0.227517 0.328930
vt 0.224249 0.327056
vt 0.333928 0.331609
vt 0.275159 0.323894
vt 0.275713 0.320178
vt 0.334313 0.327868
vt 0.400153 0.346565
vt 0.401004 0.343175
vt 0.500085 0.414413
vt 0.460002 0.377137
vt 0.537399 0.449745
vt 0.574852 0.484092
vt 0.617288 0.516228
vt 0.676567 0.533148
vt 0.048775 0.524223
vt 0.022822 0.570872
vt 0.735681 0.543506
vt 0.073241 0.477938
vt 0.796273 0.547112
vt 0.112759 0.438448
vt 0.075139 0.476651
vt 0.152718 0.403856
vt 0.197057 0.373532
vt 0.238742 0.336139
vt 0.332206 0.344164
vt 0.272825 0.336560
vt 0.395916 0.357569
vt 0.663278 0.018238
vt 0.672992 0.054839
vt 0.649835 0.464501
vt 0.694690 0.479308
vt 0.610586 0.440397
vt 0.575575 0.411008
vt 0.543577 0.378547
vt 0.517316 0.341255
vt 0.468282 0.296494
vt 0.509725 0.294323
vt 0.472114 0.239596
vt 0.512155 0.247518
vt 0.487230 0.188697
vt 0.523939 0.203727
vt 0.511450 0.143205
vt 0.543574 0.163838
vt 0.542729 0.102828
vt 0.569611 0.128426
vt 0.579376 0.067931
vt 0.600667 0.098008
vt 0.619878 0.039451
vt 0.635489 0.073294
vt 0.744386 0.486200
vt 0.743400 0.417125
vt 0.624510 0.366603
vt 0.649895 0.386989
vt 0.690395 0.116411
vt 0.663532 0.129853
vt 0.580361 0.286529
vt 0.587460 0.316591
vt 0.617473 0.170328
vt 0.599990 0.196144
vt 0.587460 0.224800
vt 0.580854 0.255590
vt 0.638911 0.147934
vt 0.603271 0.343069
vt 0.678673 0.402904
vt 0.710190 0.413181
vt 0.740261 0.355734
vt 0.720706 0.354024
vt 0.651869 0.222000
vt 0.644997 0.240100
vt 0.641933 0.258877
vt 0.675018 0.190871
vt 0.662068 0.205406
vt 0.701837 0.348421
vt 0.642777 0.277520
vt 0.647814 0.295518
vt 0.656778 0.312205
vt 0.669179 0.326957
vt 0.690240 0.179253
vt 0.707081 0.170550
vt 0.684425 0.339216
s 0
usemtl fromage_(matériau)
f 4/1/1 1/2/2 2/3/3
f 2/3/3 3/4/4 4/1/1
f 6/5/5 4/1/1 3/4/4
f 3/4/4 5/6/6 6/5/5
f 8/7/7 6/5/5 5/6/6
f 5/6/6 7/8/8 8/7/7
f 10/9/9 8/7/7 7/8/8
f 7/8/8 9/10/10 10/9/9
f 12/11/11 10/9/9 9/10/10
f 9/10/10 11/12/12 12/11/11
f 16/13/13 13/14/14 14/15/15
f 14/15/15 15/16/16 16/13/13
f 18/17/17 12/11/11 11/12/12
f 11/12/12 17/18/18 18/17/17
f 20/19/19 16/13/13 15/16/16
f 15/16/16 19/20/20 20/19/19
f 22/21/21 18/17/17 17/18/18
f 17/18/18 21/22/22 22/21/21
f 24/23/23 20/19/19 19/20/20
f 19/20/20 23/24/24 24/23/23
f 26/25/25 24/23/23 23/24/24
f 23/24/24 25/26/26 26/25/25
f 28/27/27 26/25/25 25/26/26
f 25/26/26 27/28/28 28/27/27
f 30/29/29 28/27/27 27/28/28
f 27/28/28 29/30/30 30/29/29
f 32/31/31 30/32/29 29/33/30
f 29/33/30 31/34/32 32/31/31
f 34/35/33 32/31/31 31/34/34
f 31/34/34 33/36/35 34/35/33
f 1/2/2 34/37/33 33/38/35
f 33/38/35 2/3/3 1/2/2
f 1/2/2 4/1/1 35/39/36
f 35/39/36 36/40/37 1/2/2
f 4/1/1 6/5/5 37/41/38
f 37/41/38 35/39/36 4/1/1
f 6/5/5 8/7/7 38/42/39
f 38/42/39 37/41/38 6/5/5
f 8/7/7 10/9/9 39/43/40
f 39/43/40 38/42/39 8/7/7
f 10/9/9 12/11/11 40/44/41
f 40/44/41 39/43/40 10/9/9
f 13/14/14 16/13/13 41/45/42
f 41/45/42 42/46/43 13/14/14
f 12/11/11 18/17/17 43/47/44
f 43/47/44 40/44/41 12/11/11
f 16/13/13 20/19/19 44/48/45
f 44/48/45 41/45/42 16/13/13
f 18/17/17 22/21/46 45/49/47
f 45/49/47 43/47/44 18/17/17
f 20/19/19 24/23/23 46/50/48
f 46/50/48 44/48/45 20/19/19
f 24/23/23 26/25/25 47/51/49
f 47/51/49 46/50/48 24/23/23
f 26/25/25 28/27/27 48/52/50
f 48/52/50 47/51/49 26/25/25
f 28/27/27 30/29/29 49/53/51
f 49/53/51 48/52/50 28/27/27
f 30/29/29 32/54/31 50/55/52
f 50/55/52 49/53/51 30/29/29
f 32/56/31 34/57/33 51/58/53
f 51/58/53 50/59/52 32/56/31
f 34/37/33 1/2/2 36/40/37
f 36/40/37 51/60/53 34/37/33
f 15/61/16 14/62/15 52/63/54
f 52/63/54 53/64/55 15/61/16
f 11/65/12 9/66/10 54/67/56
f 54/67/56 55/68/57 11/65/12
f 9/66/10 7/69/8 56/70/58
f 56/70/58 54/67/56 9/66/10
f 7/69/59 5/71/6 57/72/60
f 57/72/60 56/70/58 7/69/8
f 5/71/6 3/73/4 58/74/61
f 58/74/61 57/72/60 5/71/6
f 3/73/4 2/75/3 59/76/62
f 59/76/62 58/74/61 3/73/4
f 2/75/3 33/36/35 60/77/63
f 60/77/64 59/76/62 2/75/3
f 33/36/35 31/34/34 61/78/65
f 61/78/65 60/77/64 33/36/35
f 31/34/34 29/33/30 62/79/66
f 62/79/66 61/78/65 31/34/34
f 29/33/30 27/80/28 63/81/67
f 63/81/67 62/79/66 29/33/30
f 27/80/28 25/82/26 64/83/68
f 64/83/68 63/81/67 27/80/28
f 25/82/26 23/84/24 65/85/69
f 65/85/69 64/83/68 25/82/26
f 23/84/24 19/86/20 66/87/70
f 66/87/70 65/85/69 23/84/24
f 21/88/22 17/89/18 67/90/71
f 67/90/71 68/91/72 21/88/22
f 19/86/20 15/61/16 53/64/55
f 53/64/55 66/87/70 19/86/20
f 17/89/18 11/65/12 55/68/57
f 55/68/57 67/90/71 17/89/18
f 68/91/72 67/90/71 69/92/73
f 69/92/73 70/93/74 68/91/72
f 56/70/58 57/72/60 71/94/75
f 71/94/75 72/95/76 56/70/58
f 66/87/70 53/64/55 73/96/77
f 73/96/77 74/97/78 66/87/70
f 59/76/62 60/77/64 75/98/79
f 75/98/79 76/99/80 59/76/62
f 63/81/67 64/83/68 77/100/81
f 77/100/81 78/101/82 63/81/67
f 61/78/65 62/79/66 79/102/83
f 79/102/83 80/103/84 61/78/65
f 64/83/68 65/85/69 81/104/85
f 81/104/85 77/100/81 64/83/68
f 58/74/61 59/76/62 76/99/80
f 76/99/80 82/105/86 58/74/61
f 53/64/55 52/63/54 83/106/87
f 83/106/87 73/96/77 53/64/55
f 54/67/56 56/70/58 72/95/76
f 72/95/76 84/107/88 54/67/89
f 67/90/71 55/68/57 85/108/90
f 85/108/90 69/92/73 67/90/71
f 65/85/69 66/87/70 74/97/78
f 74/97/78 81/104/85 65/85/69
f 62/79/66 63/81/67 78/101/82
f 78/101/82 79/102/83 62/79/66
f 60/77/64 61/78/65 80/103/84
f 80/103/84 75/98/79 60/77/64
f 57/72/60 58/74/61 82/105/86
f 82/105/86 71/94/75 57/72/60
f 55/68/57 54/67/56 84/107/88
f 84/107/88 85/108/90 55/68/57
f 70/93/74 69/92/73 86/109/91
f 86/109/91 87/110/92 70/93/74
f 69/92/73 85/108/90 88/111/93
f 88/111/93 86/109/91 69/92/73
f 79/102/83 78/101/82 89/112/94
f 89/112/94 90/113/95 79/102/83
f 80/103/84 79/102/83 90/113/95
f 90/113/95 91/114/96 80/103/84
f 77/100/81 81/104/85 92/115/97
f 92/115/97 93/116/98 77/100/81
f 85/108/90 84/107/88 94/117/99
f 94/117/99 88/111/93 85/108/90
f 76/99/80 75/98/79 95/118/100
f 95/118/100 96/119/101 76/99/80
f 71/94/75 82/105/86 97/120/102
f 97/120/102 98/121/103 71/94/75
f 81/104/85 74/97/78 99/122/104
f 99/122/104 92/115/97 81/104/85
f 73/96/77 83/106/87 100/123/105
f 100/123/105 101/124/106 73/96/77
f 82/105/86 76/99/80 96/119/101
f 96/119/101 97/120/102 82/105/86
f 72/95/76 71/94/75 98/121/103
f 98/121/103 102/125/107 72/95/76
f 78/101/82 77/100/81 93/116/98
f 93/116/98 89/112/94 78/101/108
f 74/97/78 73/96/77 101/124/106
f 101/124/106 99/122/104 74/97/78
f 75/98/79 80/103/109 91/114/96
f 91/114/96 95/118/100 75/98/79
f 84/107/88 72/95/76 102/125/107
f 102/125/107 94/117/99 84/107/88
f 93/116/98 103/126/110 89/112/94
f 100/123/105 103/126/110 101/124/106
f 102/125/107 103/126/110 94/117/99
f 98/121/103 103/126/110 102/125/107
f 91/114/96 103/126/110 95/118/100
f 89/112/94 103/126/110 90/113/95
f 95/118/100 103/126/110 96/119/101
f 92/115/97 103/126/110 93/116/98
f 88/111/93 103/126/110 86/109/91
f 97/120/102 103/126/110 98/121/103
f 94/117/99 103/126/110 88/111/93
f 90/113/111 103/126/110 91/114/96
f 99/122/104 103/126/110 92/115/97
f 86/109/91 103/126/110 87/110/92
f 96/119/101 103/126/112 97/120/102
f 101/124/106 103/126/110 99/122/104
f 51/58/53 36/127/37 104/128/113
f 104/128/113 105/129/114 51/58/53
f 50/59/52 51/58/53 105/129/114
f 105/129/114 106/130/115 50/59/52
f 49/131/51 50/59/52 106/130/115
f 106/130/115 107/132/116 49/131/51
f 48/52/50 49/53/51 107/133/116
f 107/133/116 108/134/117 48/52/50
f 47/51/49 48/52/50 108/134/117
f 108/134/117 109/135/118 47/51/49
f 46/50/48 47/51/49 109/135/118
f 109/135/118 110/136/119 46/50/48
f 44/48/45 46/50/48 110/136/119
f 110/136/119 111/137/120 44/48/45
f 43/138/44 45/139/47 112/140/121
f 112/140/121 113/141/122 43/138/44
f 41/45/42 44/48/45 111/137/120
f 111/137/120 114/142/123 41/45/42
f 40/44/41 43/47/44 113/143/122
f 113/143/122 115/144/124 40/44/41
f 42/46/43 41/45/42 114/142/123
f 114/145/123 116/146/125 42/147/43
f 39/43/40 40/44/41 115/144/124
f 115/144/124 117/148/126 39/43/40
f 38/42/39 39/43/40 117/148/126
f 117/148/126 118/149/127 38/42/39
f 37/41/38 38/42/39 118/149/127
f 118/149/127 119/150/128 37/41/38
f 35/151/36 37/152/38 119/153/128
f 119/153/128 120/154/129 35/151/36
f 36/127/37 35/151/36 120/154/129
f 120/154/129 104/128/113 36/127/37
f 124/155/130 121/156/131 122/157/132
f 122/157/132 123/158/133 124/155/130
f 123/158/133 122/157/132 125/159/134
f 125/159/134 126/160/135 123/158/133
f 126/161/135 125/162/134 127/163/136
f 127/163/136 128/164/137 126/161/135
f 128/164/137 127/163/136 129/165/138
f 129/165/138 130/166/139 128/164/137
f 130/166/139 129/165/138 131/167/140
f 131/167/140 132/168/141 130/166/139
f 136/169/142 133/170/143 134/171/144
f 134/171/144 135/172/145 136/169/142
f 132/173/141 131/174/140 137/175/146
f 137/175/146 138/176/147 132/173/141
f 135/172/145 134/171/148 139/177/149
f 139/177/149 140/178/150 135/172/145
f 138/176/147 137/175/146 141/179/151
f 141/179/151 142/180/152 138/176/147
f 140/181/150 139/182/149 143/183/153
f 143/183/153 144/184/154 140/181/150
f 144/185/154 143/186/153 145/187/155
f 145/187/155 146/188/156 144/185/154
f 146/189/156 145/190/155 147/191/157
f 147/191/157 148/192/158 146/189/156
f 148/192/158 147/191/157 149/193/159
f 149/193/159 150/194/160 148/192/158
f 150/194/160 149/193/159 151/195/161
f 151/195/161 152/196/162 150/194/160
f 152/196/162 151/195/161 153/197/163
f 153/197/163 154/198/164 152/196/162
f 154/198/164 153/197/163 121/156/131
f 121/156/131 124/155/130 154/198/164
f 156/199/165 122/157/132 121/156/131
f 121/156/131 155/200/166 156/199/165
f 157/201/167 125/159/134 122/157/132
f 122/157/132 156/199/165 157/201/167
f 158/202/168 127/203/136 125/159/134
f 125/159/134 157/201/167 158/202/168
f 159/204/169 129/205/138 127/203/136
f 127/203/136 158/202/168 159/204/169
f 160/206/170 131/207/140 129/208/138
f 129/165/138 159/209/169 160/210/170
f 162/211/171 134/171/144 133/170/172
f 133/170/172 161/212/173 162/211/171
f 163/213/174 137/175/146 131/174/140
f 131/174/140 160/214/170 163/213/174
f 164/215/175 139/177/149 134/171/144
f 134/171/144 162/211/171 164/215/175
f 165/216/176 141/179/151 137/175/146
f 137/175/146 163/213/174 165/216/176
f 166/217/177 143/186/153 139/218/149
f 139/218/149 164/219/175 166/217/177
f 167/220/178 145/187/155 143/186/153
f 143/186/153 166/217/177 167/220/178
f 168/221/179 147/222/157 145/187/155
f 145/187/155 167/220/178 168/221/179
f 169/223/180 149/193/159 147/191/157
f 147/191/157 168/224/179 169/223/180
f 170/225/181 151/195/161 149/193/159
f 149/193/159 169/223/180 170/225/181
f 171/226/182 153/197/163 151/195/161
f 151/195/161 170/225/181 171/226/182
f 155/200/166 121/156/131 153/197/163
f 153/197/163 171/226/182 155/200/166
f 173/227/183 136/228/142 135/229/145
f 135/229/145 172/230/184 173/227/183
f 175/231/185 130/232/139 132/233/141
f 132/233/141 174/234/186 175/231/185
f 176/235/187 128/236/137 130/232/139
f 130/232/139 175/231/185 176/235/187
f 177/237/188 126/238/135 128/236/137
f 128/236/137 176/235/187 177/237/188
f 178/239/189 123/240/133 126/238/135
f 126/238/135 177/237/188 178/239/189
f 179/241/190 124/242/130 123/240/133
f 123/240/133 178/239/189 179/241/190
f 180/243/191 154/244/164 124/242/130
f 124/242/130 179/241/190 180/243/191
f 181/245/192 152/246/162 154/244/164
f 154/244/164 180/243/191 181/245/193
f 182/247/194 150/248/160 152/246/162
f 152/246/162 181/245/192 182/247/194
f 183/249/195 148/250/158 150/248/160
f 150/248/160 182/247/194 183/249/195
f 184/251/196 146/252/156 148/250/158
f 148/250/158 183/249/195 184/251/196
f 185/253/197 144/254/154 146/252/156
f 146/252/156 184/251/196 185/253/197
f 186/255/198 140/256/150 144/254/154
f 144/254/154 185/253/197 186/255/198
f 188/257/199 138/258/147 142/259/152
f 142/259/152 187/260/200 188/257/199
f 172/230/184 135/229/145 140/256/150
f 140/256/150 186/255/198 172/230/184
f 174/234/186 132/233/141 138/258/147
f 138/258/201 188/257/199 174/234/186
f 190/261/202 188/257/199 187/260/200
f 187/260/200 189/262/203 190/261/202
f 192/263/204 177/237/188 176/235/187
f 176/235/187 191/264/205 192/263/204
f 194/265/206 172/230/184 186/255/198
f 186/255/198 193/266/207 194/265/206
f 196/267/208 180/243/191 179/241/190
f 179/241/190 195/268/209 196/267/208
f 198/269/210 184/251/196 183/249/195
f 183/249/195 197/270/211 198/269/210
f 200/271/212 182/247/194 181/245/192
f 181/245/192 199/272/213 200/271/212
f 201/273/214 185/253/197 184/251/196
f 184/251/196 198/269/210 201/273/214
f 195/268/209 179/241/190 178/239/189
f 178/239/189 202/274/215 195/268/209
f 203/275/216 173/227/183 172/230/184
f 172/230/184 194/265/206 203/275/216
f 191/264/205 176/235/187 175/231/185
f 175/231/185 204/276/217 191/264/205
f 205/277/218 174/234/186 188/257/199
f 188/257/199 190/261/202 205/277/218
f 193/266/207 186/255/198 185/253/197
f 185/253/197 201/273/214 193/266/207
f 197/270/211 183/249/195 182/247/194
f 182/247/194 200/271/212 197/270/211
f 199/272/213 181/245/192 180/243/191
f 180/243/191 196/267/208 199/272/213
f 202/274/215 178/239/189 177/237/188
f 177/237/188 192/263/204 202/274/215
f 204/276/217 175/231/185 174/234/186
f 174/234/186 205/277/218 204/276/217
f 207/278/219 190/261/202 189/262/203
f 189/262/203 206/279/220 207/278/219
f 208/280/221 205/277/218 190/261/202
f 190/261/202 207/278/219 208/280/221
f 210/281/222 197/270/211 200/271/212
f 200/271/212 209/282/223 210/281/222
f 209/282/223 200/271/212 199/272/213
f 199/272/213 211/283/224 209/282/223
f 213/284/225 201/273/214 198/269/210
f 198/269/210 212/285/226 213/284/225
f 214/286/227 204/276/217 205/277/218
f 205/277/218 208/280/221 214/286/227
f 216/287/228 196/267/208 195/268/209
f 195/268/209 215/288/229 216/287/228
f 218/289/230 202/274/215 192/263/204
f 192/263/204 217/290/231 218/289/230
f 219/291/232 193/266/207 201/273/214
f 201/273/214 213/284/225 219/291/232
f 221/292/233 203/275/234 194/265/206
f 194/265/206 220/293/235 221/292/233
f 215/288/229 195/268/209 202/274/215
f 202/274/215 218/289/230 215/288/229
f 217/290/231 192/263/204 191/264/205
f 191/264/205 222/294/236 217/290/231
f 212/285/226 198/269/210 197/270/211
f 197/270/211 210/281/222 212/285/226
f 220/293/235 194/265/206 193/266/207
f 193/266/207 219/291/232 220/293/235
f 211/283/224 199/272/213 196/267/208
f 196/267/208 216/287/228 211/283/224
f 222/294/236 191/264/205 204/276/217
f 204/276/217 214/286/227 222/294/236
f 212/285/226 210/281/237 223/295/238
f 221/292/233 220/293/235 223/295/238
f 222/294/236 214/286/227 223/295/238
f 217/290/231 222/294/236 223/295/238
f 211/283/224 216/287/228 223/295/238
f 210/281/222 209/282/223 223/295/238
f 216/287/228 215/288/229 223/295/238
f 213/284/225 212/285/226 223/295/238
f 208/280/221 207/278/219 223/295/238
f 218/289/230 217/290/231 223/295/238
f 214/286/227 208/280/221 223/295/238
f 209/282/239 211/283/224 223/295/238
f 219/291/232 213/284/225 223/295/238
f 207/278/219 206/279/220 223/295/238
f 215/288/229 218/289/230 223/295/238
f 220/293/235 219/291/232 223/295/238
f 104/128/113 155/200/166 171/226/182
f 171/226/182 105/129/114 104/128/113
f 105/129/114 171/226/182 170/225/181
f 170/225/181 106/130/115 105/129/114
f 106/130/115 170/225/181 169/223/180
f 169/223/180 107/132/116 106/130/115
f 107/133/116 169/296/180 168/221/179
f 168/221/179 108/134/117 107/133/116
f 108/134/117 168/221/179 167/220/178
f 167/220/178 109/135/118 108/134/117
f 109/135/118 167/220/178 166/217/177
f 166/217/177 110/136/119 109/135/118
f 110/136/119 166/217/177 164/219/175
f 164/219/175 111/137/120 110/136/119
f 112/140/121 165/216/176 163/213/174
f 163/213/174 113/141/122 112/140/121
f 111/137/120 164/219/175 162/297/171
f 162/297/171 114/142/123 111/137/120
f 113/143/122 163/298/174 160/299/170
f 160/299/170 115/144/124 113/143/122
f 114/145/123 162/211/171 161/212/173
f 161/300/173 116/301/125 114/302/123
f 115/144/124 160/299/170 159/303/169
f 159/303/169 117/148/126 115/144/124
f 117/148/126 159/303/169 158/304/168
f 158/304/168 118/149/127 117/148/126
f 118/149/127 158/304/168 157/305/167
f 157/305/167 119/150/128 118/149/127
f 119/153/128 157/201/167 156/199/165
f 156/199/165 120/154/129 119/153/128
f 120/154/240 156/199/165 155/200/166
f 155/200/166 104/128/113 120/154/129
f 227/306/241 224/307/242 225/308/243
f 225/308/243 226/309/244 227/306/241
f 226/309/244 225/308/243 228/310/245
f 228/310/245 229/311/246 226/309/244
f 229/311/246 228/310/245 230/312/247
f 230/312/247 231/313/248 229/311/246
f 231/313/248 230/312/247 232/314/249
f 232/314/249 233/315/250 231/313/248
f 233/315/250 232/314/249 234/316/251
f 234/316/251 235/317/252 233/315/253
f 14/15/15 13/14/14 236/318/254
f 236/318/254 237/319/255 14/15/15
f 235/317/252 234/316/251 238/320/256
f 238/320/256 239/321/257 235/317/252
f 237/322/255 236/323/254 240/324/258
f 240/325/258 241/326/259 237/327/255
f 239/328/257 238/329/256 22/21/21
f 22/21/21 21/22/22 239/328/257
f 241/330/259 240/324/258 242/331/260
f 242/331/260 243/332/261 241/330/259
f 243/332/261 242/331/260 244/333/262
f 244/333/262 245/334/263 243/332/261
f 245/334/263 244/333/262 246/335/264
f 246/335/264 247/336/265 245/334/263
f 247/336/265 246/335/264 248/337/266
f 248/337/266 249/338/267 247/336/265
f 249/338/267 248/339/266 250/340/268
f 250/340/268 251/341/269 249/338/267
f 251/341/269 250/340/268 252/342/270
f 252/342/270 253/343/271 251/341/269
f 253/343/271 252/342/270 224/307/242
f 224/307/242 227/306/241 253/343/271
f 255/344/272 225/308/243 224/307/242
f 224/307/242 254/345/273 255/344/272
f 256/346/274 228/310/245 225/308/243
f 225/308/243 255/344/272 256/346/274
f 257/347/275 230/312/247 228/310/245
f 228/310/245 256/346/274 257/347/275
f 258/348/276 232/314/249 230/312/247
f 230/312/247 257/347/275 258/348/276
f 259/349/277 234/316/251 232/314/249
f 232/314/249 258/348/276 259/349/277
f 260/350/278 236/318/254 13/14/14
f 13/14/14 42/46/43 260/350/278
f 261/351/279 238/320/256 234/316/251
f 234/316/251 259/349/277 261/351/279
f 262/352/280 240/324/258 236/323/254
f 236/323/254 260/353/278 262/352/280
f 45/354/47 22/355/21 238/320/256
f 238/320/281 261/351/279 45/354/47
f 263/356/282 242/331/260 240/324/258
f 240/324/258 262/352/280 263/356/282
f 264/357/283 244/333/262 242/331/260
f 242/331/260 263/356/282 264/357/283
f 265/358/284 246/335/264 244/333/262
f 244/333/262 264/357/283 265/358/284
f 266/359/285 248/337/266 246/335/264
f 246/335/264 265/358/284 266/359/285
f 267/360/286 250/340/268 248/339/266
f 248/339/266 266/361/285 267/360/286
f 268/362/287 252/342/270 250/340/268
f 250/340/268 267/360/286 268/362/287
f 254/345/273 224/307/242 252/342/270
f 252/342/270 268/362/287 254/345/273
f 52/63/54 14/62/15 237/363/255
f 237/363/255 269/364/288 52/63/54
f 271/365/289 233/366/253 235/367/252
f 235/367/252 270/368/290 271/365/289
f 272/369/291 231/370/248 233/366/253
f 233/366/250 271/365/289 272/369/291
f 273/371/292 229/372/246 231/370/248
f 231/370/248 272/369/291 273/371/292
f 274/373/293 226/374/244 229/372/246
f 229/372/246 273/371/292 274/373/293
f 275/375/294 227/376/241 226/374/244
f 226/374/244 274/373/293 275/375/294
f 276/377/295 253/378/271 227/376/241
f 227/376/241 275/375/294 276/377/295
f 277/379/296 251/380/269 253/378/271
f 253/378/271 276/377/295 277/379/296
f 278/381/297 249/382/267 251/380/269
f 251/380/269 277/379/296 278/381/297
f 279/383/298 247/384/265 249/382/267
f 249/382/267 278/381/297 279/383/298
f 280/385/299 245/386/263 247/384/265
f 247/384/265 279/383/298 280/385/299
f 281/387/300 243/388/261 245/386/263
f 245/386/263 280/385/299 281/387/300
f 282/389/301 241/390/259 243/388/261
f 243/388/261 281/387/300 282/389/301
f 283/391/302 239/392/257 21/88/22
f 21/88/22 68/91/72 283/391/302
f 269/364/288 237/363/255 241/390/259
f 241/390/259 282/389/301 269/364/288
f 270/368/290 235/367/252 239/392/257
f 239/392/257 283/391/302 270/368/290
f 284/393/303 283/391/302 68/91/72
f 68/91/72 70/93/74 284/393/303
f 286/394/304 273/371/292 272/369/291
f 272/369/291 285/395/305 286/394/304
f 288/396/306 269/364/288 282/389/301
f 282/389/301 287/397/307 288/396/306
f 290/398/308 276/377/295 275/375/294
f 275/375/294 289/399/309 290/398/308
f 292/400/310 280/385/299 279/383/298
f 279/383/298 291/401/311 292/400/310
f 294/402/312 278/381/297 277/379/296
f 277/379/296 293/403/313 294/402/312
f 295/404/314 281/387/300 280/385/299
f 280/385/299 292/400/310 295/404/314
f 289/399/309 275/375/294 274/373/293
f 274/373/293 296/405/315 289/399/309
f 83/106/87 52/63/54 269/364/288
f 269/364/288 288/396/306 83/106/87
f 285/395/305 272/369/291 271/365/289
f 271/365/316 297/406/317 285/395/305
f 298/407/318 270/368/290 283/391/302
f 283/391/302 284/393/303 298/407/318
f 287/397/307 282/389/301 281/387/300
f 281/387/300 295/404/314 287/397/319
f 291/401/311 279/383/298 278/381/297
f 278/381/297 294/402/312 291/401/311
f 293/403/313 277/379/296 276/377/295
f 276/377/295 290/398/308 293/403/313
f 296/405/315 274/373/293 273/371/292
f 273/371/292 286/394/304 296/405/315
f 297/406/317 271/365/289 270/368/290
f 270/368/290 298/407/318 297/406/317
f 299/408/320 284/393/303 70/93/74
f 70/93/74 87/110/92 299/408/320
f 300/409/321 298/407/318 284/393/303
f 284/393/303 299/408/320 300/409/321
f 302/410/322 291/401/311 294/402/312
f 294/402/312 301/411/323 302/410/322
f 301/411/323 294/402/312 293/403/313
f 293/403/313 303/412/324 301/411/323
f 305/413/325 295/404/314 292/400/310
f 292/400/310 304/414/326 305/413/325
f 306/415/327 297/406/317 298/407/318
f 298/407/318 300/409/321 306/415/327
f 308/416/328 290/398/308 289/399/309
f 289/399/309 307/417/329 308/416/328
f 310/418/330 296/405/315 286/394/304
f 286/394/304 309/419/331 310/418/330
f 311/420/332 287/397/307 295/404/314
f 295/404/314 305/413/325 311/420/332
f 100/123/105 83/106/87 288/396/306
f 288/396/306 312/421/333 100/123/105
f 307/417/329 289/399/309 296/405/315
f 296/405/315 310/418/330 307/417/329
f 309/419/331 286/394/304 285/395/305
f 285/395/305 313/422/334 309/419/331
f 304/414/335 292/400/310 291/401/311
f 291/401/311 302/410/322 304/414/335
f 312/421/333 288/396/306 287/397/307
f 287/397/307 311/420/332 312/421/333
f 303/412/324 293/403/336 290/398/308
f 290/398/308 308/416/328 303/412/324
f 313/422/334 285/395/305 297/406/317
f 297/406/317 306/415/327 313/422/334
f 304/414/335 302/410/337 103/126/110
f 100/123/105 312/421/333 103/126/110
f 313/422/334 306/415/327 103/126/110
f 309/419/331 313/422/334 103/126/110
f 303/412/324 308/416/328 103/126/110
f 302/410/322 301/411/323 103/126/110
f 308/416/328 307/417/329 103/126/110
f 305/413/325 304/414/335 103/126/110
f 300/409/321 299/408/320 103/126/110
f 310/418/330 309/419/331 103/126/338
f 306/415/327 300/409/321 103/126/110
f 301/411/323 303/412/324 103/126/110
f 311/420/332 305/413/325 103/126/110
f 299/408/339 87/110/92 103/126/110
f 307/417/329 310/418/330 103/126/110
f 312/421/333 311/420/332 103/126/110
f 315/423/340 254/345/273 268/362/287
f 268/362/287 314/424/341 315/423/342
f 314/424/341 268/362/287 267/360/286
f 267/360/286 316/425/343 314/424/341
f 316/425/343 267/360/286 266/361/285
f 266/361/285 317/426/344 316/425/343
f 317/427/344 266/359/285 265/358/284
f 265/358/284 318/428/345 317/427/344
f 318/428/345 265/358/284 264/357/283
f 264/357/283 319/429/346 318/428/345
f 319/429/346 264/357/283 263/356/282
f 263/356/282 320/430/347 319/429/346
f 320/430/347 263/356/282 262/352/280
f 262/352/280 321/431/348 320/430/347
f 112/432/121 45/354/47 261/351/279
f 261/351/279 322/433/349 112/432/121
f 321/431/348 262/352/280 260/353/278
f 260/353/278 323/434/350 321/431/348
f 322/433/349 261/351/279 259/349/277
f 259/349/277 324/435/351 322/433/349
f 323/434/350 260/353/278 42/436/43
f 42/436/43 116/437/125 323/434/350
f 324/435/351 259/349/277 258/348/276
f 258/348/276 325/438/352 324/435/351
f 325/438/352 258/348/276 257/347/275
f 257/347/275 326/439/353 325/438/352
f 326/439/353 257/347/275 256/346/274
f 256/346/274 327/440/354 326/439/353
f 327/440/354 256/346/274 255/344/272
f 255/344/272 328/441/355 327/440/354
f 328/441/356 255/344/272 254/345/273
f 254/345/273 315/423/340 328/441/356
f 332/442/357 329/443/358 330/444/359
f 330/444/359 331/445/360 332/442/357
f 334/446/361 332/442/357 331/445/360
f 331/445/360 333/447/362 334/446/361
f 336/448/363 334/446/361 333/447/364
f 333/447/364 335/449/365 336/448/363
f 338/450/366 336/448/363 335/449/365
f 335/449/365 337/451/367 338/450/366
f 340/452/368 338/450/366 337/451/367
f 337/451/367 339/453/369 340/452/368
f 342/454/370 133/455/172 136/456/142
f 136/456/142 341/457/371 342/454/370
f 344/458/372 340/452/368 339/453/369
f 339/453/369 343/459/373 344/458/372
f 346/460/374 342/454/370 341/457/371
f 341/457/371 345/461/375 346/460/374
f 141/462/151 344/458/372 343/459/373
f 343/459/373 142/463/152 141/462/151
f 348/464/376 346/465/374 345/466/375
f 345/466/375 347/467/377 348/464/376
f 350/468/378 348/464/376 347/467/377
f 347/467/377 349/469/379 350/468/378
f 352/470/380 350/468/378 349/469/379
f 349/469/379 351/471/381 352/470/380
f 354/472/382 352/470/380 351/471/381
f 351/471/381 353/473/383 354/472/382
f 356/474/384 354/475/382 353/476/383
f 353/476/383 355/477/385 356/474/384
f 358/478/386 356/474/384 355/477/385
f 355/477/385 357/479/387 358/478/386
f 329/443/358 358/478/386 357/479/387
f 357/479/387 330/444/359 329/443/358
f 329/443/358 332/442/357 359/480/388
f 359/480/388 360/481/389 329/443/358
f 332/442/357 334/446/361 361/482/390
f 361/482/390 359/480/388 332/442/357
f 334/446/361 336/448/363 362/483/391
f 362/483/391 361/482/390 334/446/361
f 336/448/363 338/450/366 363/484/392
f 363/484/392 362/483/391 336/448/363
f 338/450/366 340/452/368 364/485/393
f 364/485/393 363/484/392 338/450/366
f 133/455/143 342/454/370 365/486/394
f 365/486/394 161/487/173 133/455/143
f 340/452/368 344/458/372 366/488/395
f 366/488/395 364/485/393 340/452/368
f 342/454/370 346/460/374 367/489/396
f 367/489/396 365/486/394 342/454/370
f 344/458/372 141/462/151 165/490/176
f 165/490/176 366/488/395 344/458/372
f 346/465/374 348/464/376 368/491/397
f 368/491/397 367/492/396 346/465/374
f 348/464/376 350/468/378 369/493/398
f 369/493/398 368/491/397 348/464/376
f 350/468/378 352/470/380 370/494/399
f 370/494/399 369/493/398 350/468/378
f 352/470/380 354/472/382 371/495/400
f 371/495/400 370/494/399 352/470/380
f 354/475/382 356/474/384 372/496/401
f 372/496/401 371/497/400 354/475/382
f 356/474/384 358/478/386 373/498/402
f 373/498/402 372/496/401 356/474/384
f 358/478/386 329/443/358 360/481/389
f 360/481/403 373/498/402 358/478/386
f 341/499/371 136/228/142 173/227/183
f 173/227/183 374/500/404 341/499/371
f 339/453/369 337/451/367 375/501/405
f 375/501/405 376/502/406 339/453/369
f 337/451/367 335/449/365 377/503/407
f 377/503/407 375/501/405 337/451/367
f 335/449/365 333/447/364 378/504/408
f 378/504/408 377/503/407 335/449/365
f 333/447/364 331/445/360 379/505/409
f 379/505/409 378/504/408 333/447/364
f 331/445/360 330/444/359 380/506/410
f 380/506/410 379/505/409 331/445/411
f 330/444/359 357/507/387 381/508/412
f 381/508/412 380/506/410 330/444/359
f 357/507/387 355/509/385 382/510/413
f 382/510/413 381/508/412 357/507/387
f 355/509/385 353/511/383 383/512/414
f 383/512/414 382/510/413 355/509/385
f 353/511/383 351/513/381 384/514/415
f 384/514/415 383/512/414 353/511/383
f 351/513/381 349/515/379 385/516/416
f 385/516/416 384/514/415 351/513/381
f 349/515/379 347/517/377 386/518/417
f 386/518/417 385/516/416 349/515/379
f 347/517/377 345/519/375 387/520/418
f 387/520/418 386/518/417 347/517/377
f 142/463/152 343/459/373 388/521/419
f 388/521/419 187/260/200 142/463/152
f 345/519/375 341/499/371 374/500/404
f 374/500/404 387/520/418 345/519/375
f 343/459/373 339/453/369 376/502/406
f 376/502/406 388/521/419 343/459/373
f 187/260/200 388/521/419 389/522/420
f 389/522/420 189/262/203 187/260/200
f 377/503/407 378/504/408 390/523/421
f 390/523/421 391/524/422 377/503/407
f 387/520/418 374/500/404 392/525/423
f 392/525/423 393/526/424 387/520/418
f 380/506/410 381/508/412 394/527/425
f 394/527/425 395/528/426 380/506/410
f 384/514/415 385/516/416 396/529/427
f 396/529/427 397/530/428 384/514/415
f 382/510/413 383/512/414 398/531/429
f 398/531/429 399/532/430 382/510/413
f 385/516/416 386/518/417 400/533/431
f 400/533/431 396/529/427 385/516/416
f 379/505/409 380/506/410 395/528/426
f 395/528/426 401/534/432 379/505/409
f 374/500/404 173/227/183 203/275/216
f 203/275/216 392/525/423 374/500/404
f 375/501/405 377/503/407 391/524/422
f 391/524/422 402/535/433 375/501/405
f 388/521/419 376/502/406 403/536/434
f 403/536/434 389/522/420 388/521/419
f 386/518/417 387/520/418 393/526/424
f 393/526/424 400/533/431 386/518/417
f 383/512/414 384/514/415 397/530/428
f 397/530/428 398/531/429 383/512/414
f 381/508/412 382/510/413 399/532/430
f 399/532/430 394/527/425 381/508/412
f 378/504/408 379/505/409 401/534/432
f 401/534/432 390/523/421 378/504/408
f 376/502/406 375/501/405 402/535/433
f 402/535/433 403/536/434 376/502/406
f 189/262/203 389/522/420 404/537/435
f 404/537/435 206/279/220 189/262/203
f 389/522/420 403/536/434 405/538/436
f 405/538/436 404/537/435 389/522/420
f 398/531/429 397/530/428 406/539/437
f 406/539/437 407/540/438 398/531/429
f 399/532/430 398/531/429 407/540/438
f 407/540/438 408/541/439 399/532/430
f 396/529/427 400/533/431 409/542/440
f 409/542/440 410/543/441 396/529/427
f 403/536/434 402/535/433 411/544/442
f 411/544/442 405/538/436 403/536/434
f 395/528/426 394/527/425 412/545/443
f 412/545/443 413/546/444 395/528/426
f 390/523/421 401/534/432 414/547/445
f 414/547/445 415/548/446 390/523/421
f 400/533/431 393/526/424 416/549/447
f 416/549/447 409/542/440 400/533/431
f 392/525/423 203/275/216 221/292/233
f 221/292/233 417/550/448 392/525/423
f 401/534/432 395/528/426 413/546/444
f 413/546/444 414/547/445 401/534/432
f 391/524/422 390/523/421 415/548/446
f 415/548/446 418/551/449 391/524/422
f 397/530/428 396/529/427 410/543/441
f 410/543/441 406/539/437 397/530/428
f 393/526/424 392/525/423 417/550/448
f 417/550/448 416/549/447 393/526/424
f 394/527/425 399/532/450 408/541/439
f 408/541/439 412/545/443 394/527/425
f 402/535/433 391/524/422 418/551/449
f 418/551/449 411/544/442 402/535/433
f 410/543/441 223/295/238 406/539/437
f 221/292/233 223/295/238 417/550/448
f 418/551/449 223/295/238 411/544/442
f 415/548/446 223/295/238 418/551/449
f 408/541/439 223/295/238 412/545/443
f 406/539/437 223/295/238 407/540/438
f 412/545/443 223/295/238 413/546/444
f 409/542/440 223/295/238 410/543/441
f 405/538/436 223/295/238 404/537/435
f 414/547/445 223/295/238 415/548/446
f 411/544/442 223/295/238 405/538/436
f 407/540/438 223/295/238 408/541/439
f 416/549/447 223/295/238 409/542/440
f 404/537/435 223/295/238 206/279/220
f 413/546/444 223/295/238 414/547/445
f 417/550/448 223/295/238 416/549/447
f 373/498/402 360/481/389 315/423/342
f 315/423/342 314/424/341 373/498/402
f 372/496/401 373/498/402 314/424/341
f 314/424/341 316/425/343 372/496/401
f 371/497/400 372/496/401 316/425/343
f 316/425/343 317/426/344 371/497/400
f 370/494/399 371/495/400 317/427/344
f 317/427/344 318/428/345 370/494/399
f 369/493/398 370/494/399 318/428/345
f 318/428/345 319/429/346 369/493/398
f 368/491/397 369/493/398 319/429/346
f 319/429/346 320/430/347 368/491/397
f 367/492/396 368/491/397 320/430/347
f 320/430/347 321/431/348 367/492/396
f 366/488/395 165/490/176 112/432/121
f 112/432/121 322/433/349 366/488/395
f 365/486/394 367/489/396 321/431/348
f 321/431/348 323/434/350 365/486/394
f 364/485/393 366/488/395 322/433/349
f 322/433/349 324/435/351 364/485/393
f 161/487/173 365/486/394 323/434/350
f 323/434/350 116/437/125 161/487/173
f 363/484/392 364/485/393 324/435/351
f 324/435/351 325/438/352 363/484/392
f 362/483/391 363/484/392 325/438/352
f 325/438/352 326/439/353 362/483/391
f 361/482/390 362/483/391 326/439/353
f 326/439/353 327/440/354 361/482/390
f 359/480/388 361/482/390 327/440/354
f 327/440/354 328/441/355 359/480/388
f 360/481/389 359/480/388 328/441/356
f 328/441/356 315/423/340 360/481/389
